nevis-Bold.ufo
<glyph name="exclam" format="1">
  <advance width="600"/>
  <unicode hex="0021"/>
  <outline>
    <contour>
      <point x="179" y="399" type="line"/>
      <point x="130" y="1334" type="line"/>
      <point x="130" y="1430"/>
      <point x="160" y="1466"/>
      <point x="261" y="1466" type="curve" smooth="yes"/>
      <point x="364" y="1466"/>
      <point x="392" y="1430"/>
      <point x="392" y="1334" type="curve"/>
      <point x="311" y="399" type="line"/>
    </contour>
    <contour>
      <point x="100" y="60"/>
      <point x="157" y="0"/>
      <point x="250" y="0" type="curve" smooth="yes"/>
      <point x="343" y="0"/>
      <point x="400" y="60"/>
      <point x="400" y="140" type="curve" smooth="yes"/>
      <point x="400" y="220"/>
      <point x="344" y="281"/>
      <point x="248" y="281" type="curve" smooth="yes"/>
      <point x="157" y="281"/>
      <point x="100" y="220"/>
      <point x="100" y="140" type="curve" smooth="yes"/>
    </contour>
  </outline>
</glyph>
<glyph name="quotedbl" format="1">
  <advance width="800"/>
  <unicode hex="0022"/>
  <outline>
    <contour>
      <point x="267" y="1098" type="line"/>
      <point x="157" y="1098" type="line"/>
      <point x="104" y="1474" type="line" smooth="yes"/>
      <point x="102" y="1487"/>
      <point x="101" y="1495"/>
      <point x="101" y="1500" type="curve" smooth="yes"/>
      <point x="101" y="1539"/>
      <point x="128" y="1587"/>
      <point x="211" y="1587" type="curve" smooth="yes"/>
      <point x="291" y="1587"/>
      <point x="323" y="1540"/>
      <point x="323" y="1501" type="curve" smooth="yes"/>
      <point x="323" y="1498"/>
      <point x="322" y="1490"/>
      <point x="321" y="1478" type="curve"/>
    </contour>
    <contour>
      <point x="580" y="1098" type="line"/>
      <point x="469" y="1098" type="line"/>
      <point x="417" y="1475" type="line"/>
      <point x="414" y="1487"/>
      <point x="413" y="1495"/>
      <point x="413" y="1500" type="curve" smooth="yes"/>
      <point x="413" y="1539"/>
      <point x="441" y="1587"/>
      <point x="524" y="1587" type="curve" smooth="yes"/>
      <point x="604" y="1587"/>
      <point x="635" y="1540"/>
      <point x="635" y="1501" type="curve" smooth="yes"/>
      <point x="635" y="1498"/>
      <point x="634" y="1490"/>
      <point x="633" y="1478" type="curve"/>
    </contour>
  </outline>
</glyph>
<glyph name="numbersign" format="1">
  <advance width="1492"/>
  <unicode hex="0023"/>
  <outline>
    <contour>
      <point x="680" y="876" type="line"/>
      <point x="597" y="609" type="line"/>
      <point x="815" y="609" type="line"/>
      <point x="899" y="876" type="line"/>
    </contour>
    <contour>
      <point x="625" y="1499" type="line"/>
      <point x="862" y="1499" type="line"/>
      <point x="731" y="1064" type="line"/>
      <point x="949" y="1064" type="line"/>
      <point x="1081" y="1499" type="line"/>
      <point x="1317" y="1499" type="line"/>
      <point x="1186" y="1064" type="line"/>
      <point x="1475" y="1064" type="line"/>
      <point x="1424" y="881" type="line"/>
      <point x="1135" y="881" type="line"/>
      <point x="1054" y="614" type="line"/>
      <point x="1363" y="614" type="line"/>
      <point x="1311" y="430" type="line"/>
      <point x="1001" y="430" type="line"/>
      <point x="871" y="0" type="line"/>
      <point x="635" y="0" type="line"/>
      <point x="764" y="430" type="line"/>
      <point x="548" y="430" type="line"/>
      <point x="416" y="0" type="line"/>
      <point x="180" y="0" type="line"/>
      <point x="310" y="430" type="line"/>
      <point x="37" y="430" type="line"/>
      <point x="89" y="614" type="line"/>
      <point x="360" y="614" type="line"/>
      <point x="444" y="881" type="line"/>
      <point x="149" y="881" type="line"/>
      <point x="200" y="1064" type="line"/>
      <point x="495" y="1064" type="line"/>
    </contour>
  </outline>
</glyph>
<glyph name="dollar" format="1">
  <advance width="1413"/>
  <unicode hex="0024"/>
  <outline>
    <contour>
      <point x="747" y="290" type="line"/>
      <point x="876" y="315"/>
      <point x="942" y="422"/>
      <point x="877" y="535" type="curve" smooth="yes"/>
      <point x="855" y="572"/>
      <point x="812" y="600"/>
      <point x="747" y="618" type="curve"/>
    </contour>
    <contour>
      <point x="607" y="1207" type="line"/>
      <point x="502" y="1180"/>
      <point x="430" y="1070"/>
      <point x="497" y="990" type="curve" smooth="yes"/>
      <point x="518" y="965"/>
      <point x="554" y="945"/>
      <point x="607" y="928" type="curve"/>
    </contour>
    <contour>
      <point x="747" y="1498" type="line"/>
      <point x="951" y="1487"/>
      <point x="1074" y="1433"/>
      <point x="1207" y="1300" type="curve"/>
      <point x="1007" y="1100" type="line"/>
      <point x="944" y="1175"/>
      <point x="858" y="1215"/>
      <point x="747" y="1220" type="curve"/>
      <point x="747" y="898" type="line"/>
      <point x="984" y="866"/>
      <point x="1227" y="747"/>
      <point x="1227" y="440" type="curve" smooth="yes"/>
      <point x="1227" y="200"/>
      <point x="982" y="27"/>
      <point x="747" y="4" type="curve"/>
      <point x="747" y="-100" type="line"/>
      <point x="607" y="-100" type="line"/>
      <point x="607" y="2" type="line"/>
      <point x="388" y="13"/>
      <point x="220" y="87"/>
      <point x="87" y="220" type="curve"/>
      <point x="287" y="420" type="line"/>
      <point x="351" y="343"/>
      <point x="458" y="297"/>
      <point x="607" y="282" type="curve"/>
      <point x="607" y="642" type="line"/>
      <point x="383" y="673"/>
      <point x="147" y="767"/>
      <point x="147" y="1060" type="curve" smooth="yes"/>
      <point x="147" y="1325"/>
      <point x="410" y="1473"/>
      <point x="607" y="1497" type="curve"/>
      <point x="607" y="1600" type="line"/>
      <point x="747" y="1600" type="line"/>
    </contour>
  </outline>
</glyph>
<glyph name="percent" format="1">
  <advance width="1900"/>
  <unicode hex="0025"/>
  <outline>
    <contour>
      <point x="352" y="0" type="line"/>
      <point x="1202" y="1500" type="line"/>
      <point x="1446" y="1500" type="line"/>
      <point x="598" y="0" type="line"/>
    </contour>
    <contour>
      <point x="222" y="759"/>
      <point x="59" y="922"/>
      <point x="59" y="1135" type="curve" smooth="yes"/>
      <point x="59" y="1348"/>
      <point x="222" y="1511"/>
      <point x="435" y="1511" type="curve" smooth="yes"/>
      <point x="648" y="1511"/>
      <point x="811" y="1348"/>
      <point x="811" y="1135" type="curve" smooth="yes"/>
      <point x="811" y="922"/>
      <point x="648" y="759"/>
      <point x="435" y="759" type="curve" smooth="yes"/>
    </contour>
    <contour>
      <point x="544" y="937"/>
      <point x="622" y="1023"/>
      <point x="622" y="1136" type="curve" smooth="yes"/>
      <point x="622" y="1249"/>
      <point x="544" y="1334"/>
      <point x="431" y="1334" type="curve" smooth="yes"/>
      <point x="320" y="1334"/>
      <point x="242" y="1249"/>
      <point x="242" y="1136" type="curve" smooth="yes"/>
      <point x="242" y="1023"/>
      <point x="320" y="937"/>
      <point x="432" y="937" type="curve" smooth="yes"/>
    </contour>
    <contour>
      <point x="1151" y="-8"/>
      <point x="990" y="153"/>
      <point x="990" y="365" type="curve" smooth="yes"/>
      <point x="990" y="577"/>
      <point x="1151" y="738"/>
      <point x="1363" y="738" type="curve" smooth="yes"/>
      <point x="1575" y="738"/>
      <point x="1736" y="577"/>
      <point x="1736" y="365" type="curve" smooth="yes"/>
      <point x="1736" y="153"/>
      <point x="1575" y="-8"/>
      <point x="1363" y="-8" type="curve" smooth="yes"/>
    </contour>
    <contour>
      <point x="1467" y="172"/>
      <point x="1544" y="255"/>
      <point x="1544" y="366" type="curve" smooth="yes"/>
      <point x="1544" y="475"/>
      <point x="1468" y="559"/>
      <point x="1357" y="559" type="curve" smooth="yes"/>
      <point x="1249" y="559"/>
      <point x="1172" y="475"/>
      <point x="1172" y="366" type="curve" smooth="yes"/>
      <point x="1172" y="255"/>
      <point x="1249" y="172"/>
      <point x="1358" y="172" type="curve" smooth="yes"/>
    </contour>
  </outline>
</glyph>
<glyph name="ampersand" format="1">
  <advance width="1642"/>
  <unicode hex="0026"/>
  <outline>
    <contour>
      <point x="1500" y="0" type="line"/>
      <point x="1159" y="0" type="line"/>
      <point x="1036" y="150" type="line"/>
      <point x="917" y="43"/>
      <point x="793" y="-6"/>
      <point x="609" y="-6" type="curve" smooth="yes"/>
      <point x="244" y="-6"/>
      <point x="90" y="215"/>
      <point x="90" y="422" type="curve" smooth="yes"/>
      <point x="90" y="610"/>
      <point x="202" y="760"/>
      <point x="425" y="871" type="curve"/>
      <point x="325" y="990"/>
      <point x="284" y="1097"/>
      <point x="284" y="1193" type="curve" smooth="yes"/>
      <point x="284" y="1370"/>
      <point x="431" y="1511"/>
      <point x="694" y="1511" type="curve" smooth="yes"/>
      <point x="947" y="1511"/>
      <point x="1088" y="1364"/>
      <point x="1088" y="1177" type="curve" smooth="yes"/>
      <point x="1088" y="1058"/>
      <point x="1036" y="962"/>
      <point x="821" y="827" type="curve"/>
      <point x="1025" y="558" type="line"/>
      <point x="1049" y="601"/>
      <point x="1073" y="663"/>
      <point x="1097" y="745" type="curve"/>
      <point x="1341" y="667" type="line"/>
      <point x="1290" y="487"/>
      <point x="1261" y="424"/>
      <point x="1205" y="355" type="curve"/>
    </contour>
    <contour>
      <point x="681" y="996" type="line"/>
      <point x="757" y="1054" type="line" smooth="yes"/>
      <point x="806" y="1091"/>
      <point x="831" y="1130"/>
      <point x="831" y="1173" type="curve" smooth="yes"/>
      <point x="831" y="1245"/>
      <point x="783" y="1293"/>
      <point x="691" y="1293" type="curve" smooth="yes"/>
      <point x="602" y="1293"/>
      <point x="558" y="1251"/>
      <point x="558" y="1192" type="curve" smooth="yes"/>
      <point x="558" y="1157"/>
      <point x="576" y="1119"/>
      <point x="612" y="1076" type="curve" smooth="yes"/>
    </contour>
    <contour>
      <point x="571" y="691" type="line"/>
      <point x="442" y="626"/>
      <point x="378" y="528"/>
      <point x="378" y="432" type="curve" smooth="yes"/>
      <point x="378" y="311"/>
      <point x="464" y="226"/>
      <point x="597" y="226" type="curve" smooth="yes"/>
      <point x="685" y="226"/>
      <point x="761" y="258"/>
      <point x="857" y="338" type="curve"/>
    </contour>
  </outline>
</glyph>
<glyph name="quotesingle" format="1">
  <advance width="500"/>
  <unicode hex="0027"/>
  <outline>
    <contour>
      <point x="267" y="1098" type="line"/>
      <point x="157" y="1098" type="line"/>
      <point x="104" y="1474" type="line" smooth="yes"/>
      <point x="102" y="1487"/>
      <point x="101" y="1495"/>
      <point x="101" y="1500" type="curve" smooth="yes"/>
      <point x="101" y="1539"/>
      <point x="128" y="1587"/>
      <point x="211" y="1587" type="curve" smooth="yes"/>
      <point x="291" y="1587"/>
      <point x="323" y="1540"/>
      <point x="323" y="1501" type="curve" smooth="yes"/>
      <point x="323" y="1498"/>
      <point x="322" y="1490"/>
      <point x="321" y="1478" type="curve"/>
    </contour>
  </outline>
</glyph>
<glyph name="parenleft" format="1">
  <advance width="944"/>
  <unicode hex="0028"/>
  <outline>
    <contour>
      <point x="99" y="878"/>
      <point x="169" y="1136"/>
      <point x="321" y="1373" type="curve" smooth="yes"/>
      <point x="367" y="1446"/>
      <point x="409" y="1503"/>
      <point x="446" y="1545" type="curve" smooth="yes"/>
      <point x="481" y="1583" type="line"/>
      <point x="760" y="1583" type="line"/>
      <point x="755" y="1573"/>
      <point x="746" y="1561"/>
      <point x="733" y="1546" type="curve" smooth="yes"/>
      <point x="712" y="1523"/>
      <point x="698" y="1506"/>
      <point x="689" y="1494" type="curve"/>
      <point x="541" y="1269"/>
      <point x="440" y="1004"/>
      <point x="440" y="680" type="curve" smooth="yes"/>
      <point x="440" y="653"/>
      <point x="440" y="627"/>
      <point x="441" y="601" type="curve"/>
      <point x="440" y="576"/>
      <point x="440" y="549"/>
      <point x="440" y="522" type="curve" smooth="yes"/>
      <point x="440" y="197"/>
      <point x="541" y="-64"/>
      <point x="689" y="-288" type="curve"/>
      <point x="698" y="-300"/>
      <point x="712" y="-318"/>
      <point x="733" y="-341" type="curve" smooth="yes"/>
      <point x="746" y="-356"/>
      <point x="755" y="-369"/>
      <point x="760" y="-380" type="curve"/>
      <point x="481" y="-380" type="line"/>
      <point x="446" y="-341" type="line" smooth="yes"/>
      <point x="409" y="-298"/>
      <point x="367" y="-241"/>
      <point x="321" y="-170" type="curve" smooth="yes"/>
      <point x="169" y="67"/>
      <point x="99" y="324"/>
      <point x="96" y="601" type="curve"/>
    </contour>
  </outline>
</glyph>
<glyph name="parenright" format="1">
  <advance width="965"/>
  <unicode hex="0029"/>
  <outline>
    <contour>
      <point x="761" y="324"/>
      <point x="691" y="67"/>
      <point x="539" y="-170" type="curve" smooth="yes"/>
      <point x="493" y="-241"/>
      <point x="451" y="-298"/>
      <point x="414" y="-341" type="curve" smooth="yes"/>
      <point x="379" y="-380" type="line"/>
      <point x="100" y="-380" type="line"/>
      <point x="105" y="-369"/>
      <point x="114" y="-356"/>
      <point x="127" y="-341" type="curve" smooth="yes"/>
      <point x="148" y="-318"/>
      <point x="162" y="-300"/>
      <point x="171" y="-288" type="curve"/>
      <point x="319" y="-64"/>
      <point x="420" y="197"/>
      <point x="420" y="522" type="curve" smooth="yes"/>
      <point x="420" y="549"/>
      <point x="420" y="576"/>
      <point x="419" y="601" type="curve"/>
      <point x="420" y="627"/>
      <point x="420" y="653"/>
      <point x="420" y="680" type="curve" smooth="yes"/>
      <point x="420" y="1004"/>
      <point x="319" y="1269"/>
      <point x="171" y="1494" type="curve"/>
      <point x="162" y="1506"/>
      <point x="148" y="1523"/>
      <point x="127" y="1546" type="curve" smooth="yes"/>
      <point x="114" y="1561"/>
      <point x="105" y="1573"/>
      <point x="100" y="1583" type="curve"/>
      <point x="379" y="1583" type="line"/>
      <point x="414" y="1545" type="line" smooth="yes"/>
      <point x="451" y="1503"/>
      <point x="493" y="1446"/>
      <point x="539" y="1373" type="curve" smooth="yes"/>
      <point x="691" y="1136"/>
      <point x="761" y="878"/>
      <point x="764" y="601" type="curve" smooth="yes"/>
    </contour>
  </outline>
</glyph>
<glyph name="asterisk" format="1">
  <advance width="900"/>
  <unicode hex="002A"/>
  <outline>
    <contour>
      <point x="328" y="1265" type="line"/>
      <point x="99" y="1344" type="line"/>
      <point x="131" y="1442" type="line"/>
      <point x="359" y="1359" type="line"/>
      <point x="359" y="1600" type="line"/>
      <point x="459" y="1600" type="line"/>
      <point x="459" y="1359" type="line"/>
      <point x="686" y="1445" type="line"/>
      <point x="724" y="1349" type="line"/>
      <point x="489" y="1260" type="line"/>
      <point x="634" y="1065" type="line"/>
      <point x="559" y="1000" type="line"/>
      <point x="407" y="1200" type="line"/>
      <point x="259" y="1000" type="line"/>
      <point x="179" y="1044" type="line"/>
    </contour>
  </outline>
</glyph>
<glyph name="plus" format="1">
  <advance width="1200"/>
  <unicode hex="002B"/>
  <outline>
    <contour>
      <point x="432" y="597" type="line"/>
      <point x="80" y="597" type="line"/>
      <point x="80" y="837" type="line"/>
      <point x="432" y="837" type="line"/>
      <point x="432" y="1167" type="line"/>
      <point x="676" y="1167" type="line"/>
      <point x="676" y="837" type="line"/>
      <point x="1028" y="837" type="line"/>
      <point x="1028" y="597" type="line"/>
      <point x="676" y="597" type="line"/>
      <point x="676" y="267" type="line"/>
      <point x="432" y="267" type="line"/>
    </contour>
  </outline>
</glyph>
<glyph name="comma" format="1">
  <advance width="594"/>
  <unicode hex="002C"/>
  <outline>
    <contour>
      <point x="262" y="0" type="line"/>
      <point x="242" y="-59"/>
      <point x="205" y="-99"/>
      <point x="151" y="-120" type="curve"/>
      <point x="201" y="-210" type="line"/>
      <point x="334" y="-143"/>
      <point x="401" y="-28"/>
      <point x="401" y="133" type="curve" smooth="yes"/>
      <point x="401" y="140" type="line" smooth="yes"/>
      <point x="401" y="220"/>
      <point x="345" y="281"/>
      <point x="249" y="281" type="curve" smooth="yes"/>
      <point x="158" y="281"/>
      <point x="101" y="220"/>
      <point x="101" y="140" type="curve" smooth="yes"/>
      <point x="101" y="60"/>
      <point x="158" y="0"/>
      <point x="251" y="0" type="curve" smooth="yes"/>
    </contour>
  </outline>
</glyph>
<glyph name="hyphen" format="1">
  <advance width="900"/>
  <unicode hex="002D"/>
  <outline>
    <contour>
      <point x="80" y="401" type="line"/>
      <point x="80" y="600" type="line"/>
      <point x="700" y="600" type="line"/>
      <point x="700" y="401" type="line"/>
    </contour>
  </outline>
</glyph>
<glyph name="period" format="1">
  <advance width="581"/>
  <unicode hex="002E"/>
  <outline>
    <contour>
      <point x="91" y="60"/>
      <point x="148" y="0"/>
      <point x="241" y="0" type="curve" smooth="yes"/>
      <point x="334" y="0"/>
      <point x="391" y="60"/>
      <point x="391" y="140" type="curve" smooth="yes"/>
      <point x="391" y="220"/>
      <point x="335" y="281"/>
      <point x="239" y="281" type="curve" smooth="yes"/>
      <point x="148" y="281"/>
      <point x="91" y="220"/>
      <point x="91" y="140" type="curve" smooth="yes"/>
    </contour>
  </outline>
</glyph>
<glyph name="slash" format="1">
  <advance width="823"/>
  <unicode hex="002F"/>
  <outline>
    <contour>
      <point x="181" y="-60" type="line"/>
      <point x="-14" y="-60" type="line"/>
      <point x="534" y="1444" type="line"/>
      <point x="729" y="1444" type="line"/>
    </contour>
  </outline>
</glyph>
<glyph name="zero" format="1">
  <advance width="1382"/>
  <unicode hex="0030"/>
  <outline>
    <contour>
      <point x="309" y="0"/>
      <point x="92" y="325"/>
      <point x="92" y="750" type="curve" smooth="yes"/>
      <point x="92" y="1177"/>
      <point x="309" y="1500"/>
      <point x="642" y="1500" type="curve" smooth="yes"/>
      <point x="977" y="1500"/>
      <point x="1192" y="1177"/>
      <point x="1192" y="750" type="curve" smooth="yes"/>
      <point x="1192" y="323"/>
      <point x="977" y="0"/>
      <point x="642" y="0" type="curve" smooth="yes"/>
    </contour>
    <contour>
      <point x="775" y="280"/>
      <point x="892" y="483"/>
      <point x="892" y="750" type="curve" smooth="yes"/>
      <point x="892" y="1017"/>
      <point x="776" y="1220"/>
      <point x="641" y="1220" type="curve" smooth="yes"/>
      <point x="509" y="1220"/>
      <point x="392" y="1017"/>
      <point x="392" y="750" type="curve" smooth="yes"/>
      <point x="392" y="483"/>
      <point x="508" y="280"/>
      <point x="643" y="280" type="curve" smooth="yes"/>
    </contour>
  </outline>
</glyph>
<glyph name="one" format="1">
  <advance width="947"/>
  <unicode hex="0031"/>
  <outline>
    <contour>
      <point x="447" y="1500" type="line"/>
      <point x="447" y="1501" type="line"/>
      <point x="746" y="1501" type="line"/>
      <point x="746" y="0" type="line"/>
      <point x="447" y="0" type="line"/>
      <point x="447" y="1100" type="line"/>
      <point x="247" y="900" type="line"/>
      <point x="47" y="1100" type="line"/>
    </contour>
  </outline>
</glyph>
<glyph name="two" format="1">
  <advance width="1300"/>
  <unicode hex="0032"/>
  <outline>
    <contour>
      <point x="892" y="1500"/>
      <point x="1100" y="1352"/>
      <point x="1100" y="1060" type="curve" smooth="yes"/>
      <point x="1100" y="713"/>
      <point x="744" y="391"/>
      <point x="571" y="300" type="curve"/>
      <point x="1111" y="300" type="line"/>
      <point x="1111" y="0" type="line"/>
      <point x="100" y="0" type="line"/>
      <point x="100" y="300" type="line"/>
      <point x="233" y="300"/>
      <point x="745" y="765"/>
      <point x="805" y="905" type="curve" smooth="yes"/>
      <point x="865" y="1045"/>
      <point x="813" y="1220"/>
      <point x="560" y="1220" type="curve" smooth="yes"/>
      <point x="440" y="1220"/>
      <point x="347" y="1180"/>
      <point x="280" y="1100" type="curve"/>
      <point x="80" y="1300" type="line"/>
      <point x="213" y="1433"/>
      <point x="294" y="1500"/>
      <point x="599" y="1500" type="curve" smooth="yes"/>
    </contour>
  </outline>
</glyph>
<glyph name="three" format="1">
  <advance width="1400"/>
  <unicode hex="0033"/>
  <outline>
    <contour>
      <point x="1050" y="753"/>
      <point x="1066" y="747"/>
      <point x="1081" y="740" type="curve" smooth="yes"/>
      <point x="1184" y="693"/>
      <point x="1236" y="593"/>
      <point x="1236" y="440" type="curve" smooth="yes"/>
      <point x="1236" y="200"/>
      <point x="978" y="0"/>
      <point x="685" y="0" type="curve" smooth="yes"/>
      <point x="406" y="0"/>
      <point x="229" y="87"/>
      <point x="96" y="220" type="curve"/>
      <point x="296" y="420" type="line"/>
      <point x="363" y="340"/>
      <point x="476" y="293"/>
      <point x="636" y="280" type="curve"/>
      <point x="903" y="280"/>
      <point x="952" y="422"/>
      <point x="886" y="535" type="curve" smooth="yes"/>
      <point x="853" y="592"/>
      <point x="736" y="623"/>
      <point x="537" y="630" type="curve"/>
      <point x="537" y="900" type="line"/>
      <point x="736" y="887"/>
      <point x="853" y="908"/>
      <point x="886" y="965" type="curve" smooth="yes"/>
      <point x="952" y="1078"/>
      <point x="903" y="1220"/>
      <point x="636" y="1220" type="curve" smooth="yes"/>
      <point x="509" y="1220"/>
      <point x="413" y="1180"/>
      <point x="346" y="1100" type="curve"/>
      <point x="146" y="1300" type="line"/>
      <point x="279" y="1433"/>
      <point x="406" y="1500"/>
      <point x="685" y="1500" type="curve" smooth="yes"/>
      <point x="978" y="1500"/>
      <point x="1196" y="1300"/>
      <point x="1196" y="1060" type="curve" smooth="yes"/>
      <point x="1196" y="920"/>
      <point x="1151" y="825"/>
      <point x="1061" y="775" type="curve" smooth="yes"/>
      <point x="1052" y="770"/>
      <point x="1043" y="765"/>
      <point x="1032" y="760" type="curve"/>
    </contour>
  </outline>
</glyph>
<glyph name="four" format="1">
  <advance width="1411"/>
  <unicode hex="0034"/>
  <outline>
    <contour>
      <point x="761" y="1499" type="line"/>
      <point x="761" y="1501" type="line"/>
      <point x="1060" y="1501" type="line"/>
      <point x="1060" y="629" type="line"/>
      <point x="1262" y="629" type="line"/>
      <point x="1262" y="330" type="line"/>
      <point x="1060" y="330" type="line"/>
      <point x="1060" y="0" type="line"/>
      <point x="761" y="0" type="line"/>
      <point x="761" y="330" type="line"/>
      <point x="80" y="330" type="line"/>
      <point x="80" y="629" type="line"/>
      <point x="90" y="629" type="line"/>
      <point x="81" y="639" type="line"/>
    </contour>
    <contour>
      <point x="761" y="629" type="line"/>
      <point x="761" y="1107" type="line"/>
      <point x="396" y="629" type="line"/>
    </contour>
  </outline>
</glyph>
<glyph name="five" format="1">
  <advance width="1302"/>
  <unicode hex="0035"/>
  <outline>
    <contour>
      <point x="1055" y="1500" type="line"/>
      <point x="1055" y="1220" type="line"/>
      <point x="435" y="1220" type="line"/>
      <point x="435" y="1010" type="line"/>
      <point x="555" y="1010" type="line" smooth="yes"/>
      <point x="754" y="1010"/>
      <point x="906" y="965"/>
      <point x="1009" y="875" type="curve"/>
      <point x="1112" y="772"/>
      <point x="1164" y="637"/>
      <point x="1164" y="470" type="curve" smooth="yes"/>
      <point x="1164" y="217"/>
      <point x="936" y="0"/>
      <point x="643" y="0" type="curve" smooth="yes"/>
      <point x="364" y="0"/>
      <point x="187" y="87"/>
      <point x="54" y="220" type="curve"/>
      <point x="254" y="420" type="line"/>
      <point x="321" y="340"/>
      <point x="427" y="297"/>
      <point x="574" y="290" type="curve"/>
      <point x="754" y="290"/>
      <point x="852" y="356"/>
      <point x="869" y="488" type="curve"/>
      <point x="865" y="573"/>
      <point x="834" y="635"/>
      <point x="777" y="674" type="curve"/>
      <point x="746" y="707"/>
      <point x="639" y="725"/>
      <point x="455" y="730" type="curve" smooth="yes"/>
      <point x="135" y="730" type="line"/>
      <point x="135" y="1500" type="line"/>
    </contour>
  </outline>
</glyph>
<glyph name="six" format="1">
  <advance width="1388"/>
  <unicode hex="0036"/>
  <outline>
    <contour>
      <point x="98" y="1210"/>
      <point x="321" y="1494"/>
      <point x="668" y="1499" type="curve"/>
      <point x="841" y="1495"/>
      <point x="981" y="1445"/>
      <point x="1088" y="1350" type="curve"/>
      <point x="938" y="1150" type="line"/>
      <point x="865" y="1190"/>
      <point x="779" y="1210"/>
      <point x="681" y="1210" type="curve" smooth="yes"/>
      <point x="508" y="1210"/>
      <point x="400" y="1097"/>
      <point x="388" y="870" type="curve"/>
      <point x="489" y="957"/>
      <point x="589" y="1000"/>
      <point x="688" y="1000" type="curve" smooth="yes"/>
      <point x="1035" y="1000"/>
      <point x="1198" y="807"/>
      <point x="1198" y="500" type="curve" smooth="yes"/>
      <point x="1198" y="220"/>
      <point x="1005" y="0"/>
      <point x="658" y="0" type="curve" smooth="yes"/>
      <point x="258" y="13"/>
      <point x="98" y="285"/>
      <point x="98" y="729" type="curve" smooth="yes"/>
    </contour>
    <contour>
      <point x="435" y="360"/>
      <point x="515" y="287"/>
      <point x="668" y="281" type="curve"/>
      <point x="821" y="287"/>
      <point x="901" y="353"/>
      <point x="908" y="480" type="curve"/>
      <point x="901" y="647"/>
      <point x="818" y="730"/>
      <point x="658" y="730" type="curve"/>
      <point x="518" y="723"/>
      <point x="441" y="646"/>
      <point x="428" y="499" type="curve"/>
    </contour>
  </outline>
</glyph>
<glyph name="seven" format="1">
  <advance width="1262"/>
  <unicode hex="0037"/>
  <outline>
    <contour>
      <point x="249" y="0" type="line"/>
      <point x="250" y="100" type="line"/>
      <point x="719" y="1220" type="line"/>
      <point x="77" y="1220" type="line"/>
      <point x="76" y="1500" type="line"/>
      <point x="1100" y="1500" type="line"/>
      <point x="1100" y="1390" type="line"/>
      <point x="541" y="0" type="line"/>
    </contour>
  </outline>
</glyph>
<glyph name="eight" format="1">
  <advance width="1292"/>
  <unicode hex="0038"/>
  <outline>
    <contour>
      <point x="414" y="593"/>
      <point x="354" y="478"/>
      <point x="421" y="365" type="curve" smooth="yes"/>
      <point x="451" y="313"/>
      <point x="507" y="285"/>
      <point x="590" y="281" type="curve"/>
      <point x="755" y="289"/>
      <point x="825" y="422"/>
      <point x="760" y="535" type="curve" smooth="yes"/>
      <point x="735" y="578"/>
      <point x="678" y="607"/>
      <point x="590" y="621" type="curve"/>
    </contour>
    <contour>
      <point x="766" y="901"/>
      <point x="825" y="1022"/>
      <point x="760" y="1135" type="curve" smooth="yes"/>
      <point x="729" y="1187"/>
      <point x="673" y="1215"/>
      <point x="590" y="1219" type="curve"/>
      <point x="425" y="1211"/>
      <point x="354" y="1078"/>
      <point x="421" y="965" type="curve" smooth="yes"/>
      <point x="446" y="922"/>
      <point x="502" y="899"/>
      <point x="590" y="896" type="curve"/>
    </contour>
    <contour>
      <point x="924" y="753"/>
      <point x="940" y="747"/>
      <point x="955" y="740" type="curve" smooth="yes"/>
      <point x="1058" y="693"/>
      <point x="1110" y="593"/>
      <point x="1110" y="440" type="curve" smooth="yes"/>
      <point x="1110" y="133"/>
      <point x="896" y="0"/>
      <point x="589" y="0" type="curve" smooth="yes"/>
      <point x="285" y="0"/>
      <point x="70" y="133"/>
      <point x="70" y="440" type="curve" smooth="yes"/>
      <point x="70" y="593"/>
      <point x="122" y="693"/>
      <point x="225" y="740" type="curve" smooth="yes"/>
      <point x="240" y="747"/>
      <point x="256" y="753"/>
      <point x="274" y="760" type="curve"/>
      <point x="263" y="765"/>
      <point x="254" y="770"/>
      <point x="245" y="775" type="curve" smooth="yes"/>
      <point x="155" y="825"/>
      <point x="110" y="920"/>
      <point x="110" y="1060" type="curve" smooth="yes"/>
      <point x="110" y="1340"/>
      <point x="298" y="1500"/>
      <point x="591" y="1500" type="curve" smooth="yes"/>
      <point x="882" y="1500"/>
      <point x="1070" y="1340"/>
      <point x="1070" y="1060" type="curve" smooth="yes"/>
      <point x="1070" y="920"/>
      <point x="1025" y="825"/>
      <point x="935" y="775" type="curve" smooth="yes"/>
      <point x="926" y="770"/>
      <point x="917" y="765"/>
      <point x="906" y="760" type="curve"/>
    </contour>
  </outline>
</glyph>
<glyph name="nine" format="1">
  <advance width="1328"/>
  <unicode hex="0039"/>
  <outline>
    <contour>
      <point x="1134" y="196"/>
      <point x="873" y="-23"/>
      <point x="528" y="6" type="curve"/>
      <point x="356" y="27"/>
      <point x="222" y="90"/>
      <point x="125" y="196" type="curve"/>
      <point x="294" y="380" type="line"/>
      <point x="433" y="285"/>
      <point x="645" y="256"/>
      <point x="758" y="359" type="curve" smooth="yes"/>
      <point x="815" y="410"/>
      <point x="852" y="492"/>
      <point x="869" y="604" type="curve"/>
      <point x="650" y="452"/>
      <point x="336" y="481"/>
      <point x="188" y="677" type="curve" smooth="yes"/>
      <point x="40" y="872"/>
      <point x="70" y="1218"/>
      <point x="275" y="1392" type="curve" smooth="yes"/>
      <point x="377" y="1479"/>
      <point x="514" y="1513"/>
      <point x="687" y="1496" type="curve"/>
      <point x="990" y="1444"/>
      <point x="1133" y="1238"/>
      <point x="1142" y="835" type="curve" smooth="yes"/>
    </contour>
    <contour>
      <point x="835" y="1139"/>
      <point x="755" y="1212"/>
      <point x="602" y="1218" type="curve"/>
      <point x="449" y="1212"/>
      <point x="369" y="1146"/>
      <point x="362" y="1019" type="curve"/>
      <point x="369" y="852"/>
      <point x="452" y="769"/>
      <point x="612" y="769" type="curve"/>
      <point x="752" y="776"/>
      <point x="829" y="853"/>
      <point x="842" y="1000" type="curve"/>
    </contour>
  </outline>
</glyph>
<glyph name="colon" format="1">
  <advance width="586"/>
  <unicode hex="003A"/>
  <outline>
    <contour>
      <point x="96" y="60"/>
      <point x="153" y="0"/>
      <point x="246" y="0" type="curve" smooth="yes"/>
      <point x="339" y="0"/>
      <point x="396" y="60"/>
      <point x="396" y="140" type="curve" smooth="yes"/>
      <point x="396" y="220"/>
      <point x="340" y="281"/>
      <point x="244" y="281" type="curve" smooth="yes"/>
      <point x="153" y="281"/>
      <point x="96" y="220"/>
      <point x="96" y="140" type="curve" smooth="yes"/>
    </contour>
    <contour>
      <point x="96" y="776"/>
      <point x="153" y="716"/>
      <point x="246" y="716" type="curve" smooth="yes"/>
      <point x="339" y="716"/>
      <point x="396" y="776"/>
      <point x="396" y="856" type="curve" smooth="yes"/>
      <point x="396" y="936"/>
      <point x="340" y="997"/>
      <point x="244" y="997" type="curve" smooth="yes"/>
      <point x="153" y="997"/>
      <point x="96" y="936"/>
      <point x="96" y="856" type="curve" smooth="yes"/>
    </contour>
  </outline>
</glyph>
<glyph name="semicolon" format="1">
  <advance width="602"/>
  <unicode hex="003B"/>
  <outline>
    <contour>
      <point x="258" y="0" type="line"/>
      <point x="238" y="-59"/>
      <point x="201" y="-99"/>
      <point x="147" y="-120" type="curve"/>
      <point x="197" y="-210" type="line"/>
      <point x="330" y="-143"/>
      <point x="397" y="-28"/>
      <point x="397" y="133" type="curve" smooth="yes"/>
      <point x="397" y="140" type="line" smooth="yes"/>
      <point x="397" y="220"/>
      <point x="341" y="281"/>
      <point x="245" y="281" type="curve" smooth="yes"/>
      <point x="154" y="281"/>
      <point x="97" y="220"/>
      <point x="97" y="140" type="curve" smooth="yes"/>
      <point x="97" y="60"/>
      <point x="154" y="0"/>
      <point x="247" y="0" type="curve" smooth="yes"/>
    </contour>
    <contour>
      <point x="102" y="780"/>
      <point x="159" y="720"/>
      <point x="252" y="720" type="curve" smooth="yes"/>
      <point x="345" y="720"/>
      <point x="402" y="780"/>
      <point x="402" y="860" type="curve" smooth="yes"/>
      <point x="402" y="940"/>
      <point x="346" y="1001"/>
      <point x="250" y="1001" type="curve" smooth="yes"/>
      <point x="159" y="1001"/>
      <point x="102" y="940"/>
      <point x="102" y="860" type="curve" smooth="yes"/>
    </contour>
  </outline>
</glyph>
<glyph name="less" format="1">
  <advance width="1148"/>
  <unicode hex="003C"/>
  <outline>
    <contour>
      <point x="996" y="1070" type="line"/>
      <point x="416" y="750" type="line"/>
      <point x="996" y="430" type="line"/>
      <point x="996" y="200" type="line"/>
      <point x="48" y="721" type="line"/>
      <point x="48" y="786" type="line"/>
      <point x="996" y="1300" type="line"/>
    </contour>
  </outline>
</glyph>
<glyph name="equal" format="1">
  <advance width="1200"/>
  <unicode hex="003D"/>
  <outline>
    <contour>
      <point x="100" y="599" type="line"/>
      <point x="1000" y="599" type="line"/>
      <point x="1000" y="400" type="line"/>
      <point x="100" y="400" type="line"/>
    </contour>
    <contour>
      <point x="100" y="1000" type="line"/>
      <point x="1000" y="1000" type="line"/>
      <point x="1000" y="801" type="line"/>
      <point x="100" y="801" type="line"/>
    </contour>
  </outline>
</glyph>
<glyph name="greater" format="1">
  <advance width="1154"/>
  <unicode hex="003E"/>
  <outline>
    <contour>
      <point x="100" y="1300" type="line"/>
      <point x="1048" y="786" type="line"/>
      <point x="1048" y="721" type="line"/>
      <point x="100" y="200" type="line"/>
      <point x="100" y="430" type="line"/>
      <point x="680" y="750" type="line"/>
      <point x="100" y="1070" type="line"/>
    </contour>
  </outline>
</glyph>
<glyph name="question" format="1">
  <advance width="1249"/>
  <unicode hex="003F"/>
  <outline>
    <contour>
      <point x="829" y="1500"/>
      <point x="1090" y="1325"/>
      <point x="1090" y="1060" type="curve"/>
      <point x="1077" y="873"/>
      <point x="998" y="723"/>
      <point x="805" y="670" type="curve" smooth="yes"/>
      <point x="708" y="643"/>
      <point x="657" y="553"/>
      <point x="651" y="400" type="curve"/>
      <point x="371" y="400" type="line"/>
      <point x="371" y="653"/>
      <point x="447" y="828"/>
      <point x="664" y="876" type="curve"/>
      <point x="755" y="892"/>
      <point x="803" y="959"/>
      <point x="806" y="1078" type="curve"/>
      <point x="783" y="1169"/>
      <point x="691" y="1217"/>
      <point x="530" y="1220" type="curve" smooth="yes"/>
      <point x="410" y="1220"/>
      <point x="317" y="1180"/>
      <point x="250" y="1100" type="curve"/>
      <point x="50" y="1300" type="line"/>
      <point x="183" y="1433"/>
      <point x="310" y="1500"/>
      <point x="589" y="1500" type="curve" smooth="yes"/>
    </contour>
    <contour>
      <point x="371" y="60"/>
      <point x="428" y="0"/>
      <point x="521" y="0" type="curve" smooth="yes"/>
      <point x="614" y="0"/>
      <point x="671" y="60"/>
      <point x="671" y="140" type="curve" smooth="yes"/>
      <point x="671" y="220"/>
      <point x="615" y="281"/>
      <point x="519" y="281" type="curve" smooth="yes"/>
      <point x="428" y="281"/>
      <point x="371" y="220"/>
      <point x="371" y="140" type="curve" smooth="yes"/>
    </contour>
  </outline>
</glyph>
<glyph name="at" format="1">
  <advance width="2189"/>
  <unicode hex="0040"/>
  <outline>
    <contour>
      <point x="651" y="884" type="line"/>
      <point x="778" y="971"/>
      <point x="931" y="1017"/>
      <point x="1111" y="1024" type="curve"/>
      <point x="1351" y="1024"/>
      <point x="1501" y="891"/>
      <point x="1501" y="624" type="curve" smooth="yes"/>
      <point x="1501" y="232" type="line"/>
      <point x="1649" y="84"/>
      <point x="1746" y="353"/>
      <point x="1735" y="541" type="curve"/>
      <point x="1731" y="949"/>
      <point x="1523" y="1249"/>
      <point x="1043" y="1250" type="curve" smooth="yes"/>
      <point x="586" y="1250"/>
      <point x="356" y="939"/>
      <point x="345" y="543" type="curve"/>
      <point x="356" y="-2"/>
      <point x="649" y="-240"/>
      <point x="1442" y="-200" type="curve"/>
      <point x="1442" y="-400" type="line"/>
      <point x="402" y="-440"/>
      <point x="105" y="-58"/>
      <point x="92" y="546" type="curve"/>
      <point x="92" y="991"/>
      <point x="403" y="1450"/>
      <point x="1043" y="1450" type="curve" smooth="yes"/>
      <point x="1682" y="1450"/>
      <point x="1976" y="1059"/>
      <point x="1993" y="538" type="curve"/>
      <point x="1966" y="172"/>
      <point x="1850" y="-34"/>
      <point x="1643" y="-80" type="curve"/>
      <point x="1460" y="-87"/>
      <point x="1320" y="-26"/>
      <point x="1221" y="104" type="curve"/>
      <point x="1140" y="51"/>
      <point x="1066" y="24"/>
      <point x="1001" y="24" type="curve" smooth="yes"/>
      <point x="734" y="24"/>
      <point x="601" y="144"/>
      <point x="601" y="344" type="curve" smooth="yes"/>
      <point x="601" y="531"/>
      <point x="720" y="704"/>
      <point x="1001" y="704" type="curve" smooth="yes"/>
      <point x="1066" y="704"/>
      <point x="1139" y="684"/>
      <point x="1221" y="644" type="curve"/>
      <point x="1221" y="674" type="line"/>
      <point x="1220" y="747"/>
      <point x="1166" y="787"/>
      <point x="1061" y="794" type="curve"/>
      <point x="941" y="794"/>
      <point x="848" y="774"/>
      <point x="781" y="734" type="curve"/>
    </contour>
    <contour>
      <point x="1221" y="437" type="line"/>
      <point x="1194" y="488"/>
      <point x="1131" y="514"/>
      <point x="1031" y="514" type="curve"/>
      <point x="911" y="501"/>
      <point x="848" y="454"/>
      <point x="841" y="374" type="curve"/>
      <point x="848" y="295"/>
      <point x="911" y="252"/>
      <point x="1031" y="245" type="curve"/>
      <point x="1131" y="245"/>
      <point x="1194" y="271"/>
      <point x="1221" y="324" type="curve"/>
    </contour>
  </outline>
</glyph>
<glyph name="A" format="1">
  <advance width="1644"/>
  <unicode hex="0041"/>
  <outline>
    <contour>
      <point x="44" y="0" type="line"/>
      <point x="644" y="1500" type="line"/>
      <point x="944" y="1500" type="line"/>
      <point x="1543" y="1" type="line"/>
      <point x="1224" y="0" type="line"/>
      <point x="1134" y="230" type="line"/>
      <point x="454" y="230" type="line"/>
      <point x="364" y="0" type="line"/>
    </contour>
    <contour>
      <point x="802" y="1100" type="line"/>
      <point x="574" y="530" type="line"/>
      <point x="1024" y="530" type="line"/>
    </contour>
  </outline>
</glyph>
<glyph name="B" format="1">
  <advance width="1573"/>
  <unicode hex="0042"/>
  <outline>
    <contour>
      <point x="401" y="1201" type="line"/>
      <point x="824" y="1201" type="line" smooth="yes"/>
      <point x="943" y="1197"/>
      <point x="1004" y="1158"/>
      <point x="1007" y="1085" type="curve"/>
      <point x="1004" y="962"/>
      <point x="942" y="900"/>
      <point x="821" y="898" type="curve" smooth="yes"/>
      <point x="401" y="898" type="line"/>
    </contour>
    <contour>
      <point x="401" y="601" type="line"/>
      <point x="894" y="601" type="line" smooth="yes"/>
      <point x="1033" y="597"/>
      <point x="1104" y="547"/>
      <point x="1107" y="451" type="curve"/>
      <point x="1104" y="308"/>
      <point x="1032" y="236"/>
      <point x="891" y="234" type="curve" smooth="yes"/>
      <point x="401" y="234" type="line"/>
    </contour>
    <contour>
      <point x="1282" y="1337"/>
      <point x="1149" y="1484"/>
      <point x="896" y="1499" type="curve"/>
      <point x="100" y="1499" type="line"/>
      <point x="100" y="0" type="line"/>
      <point x="944" y="-1" type="line"/>
      <point x="1233" y="16"/>
      <point x="1384" y="165"/>
      <point x="1397" y="448" type="curve"/>
      <point x="1389" y="589"/>
      <point x="1319" y="703"/>
      <point x="1188" y="791" type="curve"/>
      <point x="1255" y="836"/>
      <point x="1291" y="925"/>
      <point x="1296" y="1058" type="curve"/>
    </contour>
  </outline>
</glyph>
<glyph name="C" format="1">
  <advance width="1549"/>
  <unicode hex="0043"/>
  <outline>
    <contour>
      <point x="374" y="1"/>
      <point x="49" y="322"/>
      <point x="49" y="753" type="curve" smooth="yes"/>
      <point x="50" y="1174"/>
      <point x="374" y="1500"/>
      <point x="798" y="1500" type="curve" smooth="yes"/>
      <point x="1012" y="1500"/>
      <point x="1196" y="1433"/>
      <point x="1349" y="1300" type="curve"/>
      <point x="1149" y="1081" type="line"/>
      <point x="945" y="1241"/>
      <point x="637" y="1242"/>
      <point x="473" y="1075" type="curve" smooth="yes"/>
      <point x="308" y="908"/>
      <point x="309" y="587"/>
      <point x="474" y="423" type="curve" smooth="yes"/>
      <point x="557" y="341"/>
      <point x="665" y="300"/>
      <point x="800" y="300" type="curve" smooth="yes"/>
      <point x="935" y="300"/>
      <point x="1051" y="340"/>
      <point x="1149" y="419" type="curve"/>
      <point x="1349" y="200" type="line"/>
      <point x="1196" y="67"/>
      <point x="1013" y="0"/>
      <point x="798" y="0" type="curve" smooth="yes"/>
    </contour>
  </outline>
</glyph>
<glyph name="D" format="1">
  <advance width="1600"/>
  <unicode hex="0044"/>
  <outline>
    <contour>
      <point x="423" y="299" type="line"/>
      <point x="423" y="1200" type="line"/>
      <point x="701" y="1200" type="line" smooth="yes"/>
      <point x="967" y="1200"/>
      <point x="1100" y="1050"/>
      <point x="1101" y="750" type="curve" smooth="yes"/>
      <point x="1100" y="450"/>
      <point x="967" y="300"/>
      <point x="701" y="299" type="curve" smooth="yes"/>
    </contour>
    <contour>
      <point x="701" y="0" type="line" smooth="yes"/>
      <point x="1168" y="0"/>
      <point x="1401" y="250"/>
      <point x="1401" y="750" type="curve" smooth="yes"/>
      <point x="1401" y="1251"/>
      <point x="1168" y="1501"/>
      <point x="701" y="1501" type="curve" smooth="yes"/>
      <point x="123" y="1501" type="line"/>
      <point x="123" y="0" type="line"/>
    </contour>
  </outline>
</glyph>
<glyph name="E" format="1">
  <advance width="1400"/>
  <unicode hex="0045"/>
  <outline>
    <contour>
      <point x="119" y="0" type="line"/>
      <point x="119" y="1499" type="line"/>
      <point x="1221" y="1500" type="line"/>
      <point x="1221" y="1220" type="line"/>
      <point x="419" y="1220" type="line"/>
      <point x="419" y="900" type="line"/>
      <point x="1020" y="900" type="line"/>
      <point x="1020" y="621" type="line"/>
      <point x="419" y="621" type="line"/>
      <point x="419" y="280" type="line"/>
      <point x="1219" y="280" type="line"/>
      <point x="1219" y="0" type="line"/>
    </contour>
  </outline>
</glyph>
<glyph name="F" format="1">
  <advance width="1272"/>
  <unicode hex="0046"/>
  <outline>
    <contour>
      <point x="122" y="0" type="line"/>
      <point x="122" y="1500" type="line"/>
      <point x="1177" y="1500" type="line"/>
      <point x="1177" y="1220" type="line"/>
      <point x="422" y="1220" type="line"/>
      <point x="422" y="900" type="line"/>
      <point x="979" y="900" type="line"/>
      <point x="979" y="621" type="line"/>
      <point x="422" y="621" type="line"/>
      <point x="422" y="0" type="line"/>
    </contour>
  </outline>
</glyph>
<glyph name="G" format="1">
  <advance width="1521"/>
  <unicode hex="0047"/>
  <outline>
    <contour>
      <point x="367" y="1"/>
      <point x="42" y="322"/>
      <point x="42" y="753" type="curve" smooth="yes"/>
      <point x="43" y="1174"/>
      <point x="367" y="1500"/>
      <point x="791" y="1500" type="curve" smooth="yes"/>
      <point x="1005" y="1500"/>
      <point x="1189" y="1433"/>
      <point x="1342" y="1300" type="curve"/>
      <point x="1142" y="1081" type="line"/>
      <point x="938" y="1241"/>
      <point x="630" y="1242"/>
      <point x="466" y="1075" type="curve" smooth="yes"/>
      <point x="301" y="908"/>
      <point x="302" y="587"/>
      <point x="467" y="423" type="curve" smooth="yes"/>
      <point x="550" y="341"/>
      <point x="658" y="300"/>
      <point x="793" y="300" type="curve" smooth="yes"/>
      <point x="901" y="300"/>
      <point x="984" y="321"/>
      <point x="1042" y="364" type="curve"/>
      <point x="1042" y="621" type="line"/>
      <point x="842" y="620" type="line"/>
      <point x="842" y="900" type="line"/>
      <point x="1342" y="900" type="line"/>
      <point x="1342" y="200" type="line"/>
      <point x="1189" y="67"/>
      <point x="1006" y="0"/>
      <point x="791" y="0" type="curve" smooth="yes"/>
    </contour>
  </outline>
</glyph>
<glyph name="H" format="1">
  <advance width="1623"/>
  <unicode hex="0048"/>
  <outline>
    <contour>
      <point x="123" y="0" type="line"/>
      <point x="123" y="1500" type="line"/>
      <point x="423" y="1500" type="line"/>
      <point x="423" y="900" type="line"/>
      <point x="1122" y="900" type="line"/>
      <point x="1122" y="1501" type="line"/>
      <point x="1422" y="1501" type="line"/>
      <point x="1422" y="1" type="line"/>
      <point x="1122" y="0" type="line"/>
      <point x="1122" y="620" type="line"/>
      <point x="423" y="620" type="line"/>
      <point x="423" y="0" type="line"/>
    </contour>
  </outline>
</glyph>
<glyph name="I" format="1">
  <advance width="600"/>
  <unicode hex="0049"/>
  <outline>
    <contour>
      <point x="123" y="1501" type="line"/>
      <point x="422" y="1501" type="line"/>
      <point x="422" y="0" type="line"/>
      <point x="123" y="0" type="line"/>
    </contour>
  </outline>
</glyph>
<glyph name="J" format="1">
  <advance width="849"/>
  <unicode hex="004A"/>
  <outline>
    <contour>
      <point x="148" y="280" type="line"/>
      <point x="282" y="286"/>
      <point x="349" y="359"/>
      <point x="349" y="499" type="curve" smooth="yes"/>
      <point x="349" y="1500" type="line"/>
      <point x="650" y="1500" type="line"/>
      <point x="649" y="399" type="line" smooth="yes"/>
      <point x="649" y="160"/>
      <point x="488" y="0"/>
      <point x="251" y="0" type="curve" smooth="yes"/>
      <point x="49" y="0" type="line"/>
      <point x="49" y="280" type="line"/>
    </contour>
  </outline>
</glyph>
<glyph name="K" format="1">
  <advance width="1444"/>
  <unicode hex="004B"/>
  <outline>
    <contour>
      <point x="126" y="1500" type="line"/>
      <point x="426" y="1500" type="line"/>
      <point x="426" y="900" type="line"/>
      <point x="926" y="1500" type="line"/>
      <point x="1263" y="1500" type="line"/>
      <point x="676" y="800" type="line"/>
      <point x="1386" y="0" type="line"/>
      <point x="996" y="0" type="line"/>
      <point x="426" y="648" type="line"/>
      <point x="426" y="0" type="line"/>
      <point x="126" y="0" type="line"/>
    </contour>
  </outline>
</glyph>
<glyph name="L" format="1">
  <advance width="1350"/>
  <unicode hex="004C"/>
  <outline>
    <contour>
      <point x="126" y="1500" type="line"/>
      <point x="126" y="0" type="line"/>
      <point x="1226" y="0" type="line"/>
      <point x="1226" y="280" type="line"/>
      <point x="426" y="280" type="line"/>
      <point x="426" y="1500" type="line"/>
    </contour>
  </outline>
</glyph>
<glyph name="M" format="1">
  <advance width="1800"/>
  <unicode hex="004D"/>
  <outline>
    <contour>
      <point x="123" y="0" type="line"/>
      <point x="123" y="1500" type="line"/>
      <point x="223" y="1500" type="line"/>
      <point x="873" y="760" type="line"/>
      <point x="1524" y="1500" type="line"/>
      <point x="1624" y="1500" type="line"/>
      <point x="1624" y="0" type="line"/>
      <point x="1324" y="0" type="line"/>
      <point x="1323" y="870" type="line"/>
      <point x="873" y="370" type="line"/>
      <point x="423" y="870" type="line"/>
      <point x="423" y="0" type="line"/>
    </contour>
  </outline>
</glyph>
<glyph name="N" format="1">
  <advance width="1651"/>
  <unicode hex="004E"/>
  <outline>
    <contour>
      <point x="123" y="0" type="line"/>
      <point x="123" y="1500" type="line"/>
      <point x="223" y="1500" type="line"/>
      <point x="1163" y="560" type="line"/>
      <point x="1163" y="1500" type="line"/>
      <point x="1463" y="1500" type="line"/>
      <point x="1463" y="0" type="line"/>
      <point x="1353" y="0" type="line"/>
      <point x="423" y="930" type="line"/>
      <point x="423" y="0" type="line"/>
    </contour>
  </outline>
</glyph>
<glyph name="O" format="1">
  <advance width="1647"/>
  <unicode hex="004F"/>
  <outline>
    <contour>
      <point x="370" y="0"/>
      <point x="47" y="325"/>
      <point x="47" y="750" type="curve" smooth="yes"/>
      <point x="47" y="1177"/>
      <point x="370" y="1500"/>
      <point x="797" y="1500" type="curve" smooth="yes"/>
      <point x="1224" y="1500"/>
      <point x="1547" y="1177"/>
      <point x="1547" y="750" type="curve" smooth="yes"/>
      <point x="1547" y="323"/>
      <point x="1224" y="0"/>
      <point x="797" y="0" type="curve" smooth="yes"/>
    </contour>
    <contour>
      <point x="1063" y="280"/>
      <point x="1247" y="483"/>
      <point x="1247" y="750" type="curve" smooth="yes"/>
      <point x="1247" y="1017"/>
      <point x="1064" y="1220"/>
      <point x="796" y="1220" type="curve" smooth="yes"/>
      <point x="531" y="1220"/>
      <point x="347" y="1017"/>
      <point x="347" y="750" type="curve" smooth="yes"/>
      <point x="347" y="483"/>
      <point x="530" y="280"/>
      <point x="798" y="280" type="curve" smooth="yes"/>
    </contour>
  </outline>
</glyph>
<glyph name="Q" format="1">
  <advance width="1652"/>
  <unicode hex="0051"/>
  <outline>
    <contour>
      <point x="1187" y="495" type="line"/>
      <point x="1230" y="569"/>
      <point x="1252" y="654"/>
      <point x="1252" y="750" type="curve" smooth="yes"/>
      <point x="1252" y="1017"/>
      <point x="1069" y="1220"/>
      <point x="801" y="1220" type="curve" smooth="yes"/>
      <point x="536" y="1220"/>
      <point x="352" y="1017"/>
      <point x="352" y="750" type="curve" smooth="yes"/>
      <point x="352" y="483"/>
      <point x="535" y="280"/>
      <point x="803" y="280" type="curve" smooth="yes"/>
      <point x="858" y="280"/>
      <point x="909" y="288"/>
      <point x="956" y="303" type="curve"/>
      <point x="843" y="450" type="line"/>
      <point x="1081" y="633" type="line"/>
    </contour>
    <contour>
      <point x="1135" y="71" type="line"/>
      <point x="1036" y="24"/>
      <point x="925" y="0"/>
      <point x="802" y="0" type="curve" smooth="yes"/>
      <point x="375" y="0"/>
      <point x="52" y="325"/>
      <point x="52" y="750" type="curve" smooth="yes"/>
      <point x="52" y="1177"/>
      <point x="375" y="1500"/>
      <point x="802" y="1500" type="curve" smooth="yes"/>
      <point x="1229" y="1500"/>
      <point x="1552" y="1177"/>
      <point x="1552" y="750" type="curve" smooth="yes"/>
      <point x="1552" y="555"/>
      <point x="1492" y="390"/>
      <point x="1373" y="254" type="curve"/>
      <point x="1501" y="88" type="line"/>
      <point x="1263" y="-95" type="line"/>
    </contour>
  </outline>
</glyph>
<glyph name="R" format="1">
  <advance width="1433"/>
  <unicode hex="0052"/>
  <outline>
    <contour>
      <point x="423" y="900" type="line"/>
      <point x="843" y="900" type="line" smooth="yes"/>
      <point x="964" y="902"/>
      <point x="1026" y="957"/>
      <point x="1029" y="1065" type="curve"/>
      <point x="1026" y="1164"/>
      <point x="965" y="1215"/>
      <point x="846" y="1219" type="curve" smooth="yes"/>
      <point x="423" y="1219" type="line"/>
    </contour>
    <contour>
      <point x="1400" y="0" type="line"/>
      <point x="1056" y="0" type="line"/>
      <point x="697" y="620" type="line"/>
      <point x="423" y="620" type="line"/>
      <point x="423" y="0" type="line"/>
      <point x="123" y="0" type="line"/>
      <point x="123" y="1500" type="line"/>
      <point x="777" y="1500" type="line" smooth="yes"/>
      <point x="1127" y="1500"/>
      <point x="1302" y="1356"/>
      <point x="1302" y="1068" type="curve" smooth="yes"/>
      <point x="1302" y="851"/>
      <point x="1210" y="713"/>
      <point x="1026" y="654" type="curve"/>
    </contour>
  </outline>
</glyph>
<glyph name="S" format="1">
  <advance width="1315"/>
  <unicode hex="0053"/>
  <outline>
    <contour>
      <point x="890" y="1500"/>
      <point x="1017" y="1433"/>
      <point x="1150" y="1300" type="curve"/>
      <point x="950" y="1100" type="line"/>
      <point x="883" y="1180"/>
      <point x="790" y="1220"/>
      <point x="670" y="1220" type="curve" smooth="yes"/>
      <point x="430" y="1220"/>
      <point x="373" y="1070"/>
      <point x="440" y="990" type="curve" smooth="yes"/>
      <point x="473" y="950"/>
      <point x="550" y="920"/>
      <point x="670" y="900" type="curve"/>
      <point x="923" y="873"/>
      <point x="1170" y="747"/>
      <point x="1170" y="440" type="curve" smooth="yes"/>
      <point x="1170" y="200"/>
      <point x="912" y="0"/>
      <point x="619" y="0" type="curve" smooth="yes"/>
      <point x="340" y="0"/>
      <point x="163" y="87"/>
      <point x="30" y="220" type="curve"/>
      <point x="230" y="420" type="line"/>
      <point x="297" y="340"/>
      <point x="410" y="293"/>
      <point x="570" y="280" type="curve"/>
      <point x="837" y="280"/>
      <point x="886" y="422"/>
      <point x="820" y="535" type="curve" smooth="yes"/>
      <point x="787" y="592"/>
      <point x="703" y="627"/>
      <point x="570" y="640" type="curve" smooth="yes"/>
      <point x="330" y="667"/>
      <point x="90" y="767"/>
      <point x="90" y="1060" type="curve" smooth="yes"/>
      <point x="90" y="1325"/>
      <point x="371" y="1500"/>
      <point x="611" y="1500" type="curve" smooth="yes"/>
    </contour>
  </outline>
</glyph>
<glyph name="T" format="1">
  <advance width="1447"/>
  <unicode hex="0054"/>
  <outline>
    <contour>
      <point x="47" y="1500" type="line"/>
      <point x="47" y="1220" type="line"/>
      <point x="547" y="1220" type="line"/>
      <point x="547" y="0" type="line"/>
      <point x="847" y="0" type="line"/>
      <point x="847" y="1220" type="line"/>
      <point x="1347" y="1220" type="line"/>
      <point x="1347" y="1500" type="line"/>
    </contour>
  </outline>
</glyph>
<glyph name="U" format="1">
  <advance width="1601"/>
  <unicode hex="0055"/>
  <outline>
    <contour>
      <point x="100" y="1500" type="line"/>
      <point x="100" y="550" type="line" smooth="yes"/>
      <point x="100" y="243"/>
      <point x="377" y="0"/>
      <point x="750" y="0" type="curve" smooth="yes"/>
      <point x="1123" y="0"/>
      <point x="1400" y="243"/>
      <point x="1400" y="550" type="curve" smooth="yes"/>
      <point x="1400" y="1500" type="line"/>
      <point x="1100" y="1500" type="line"/>
      <point x="1100" y="630" type="line" smooth="yes"/>
      <point x="1100" y="403"/>
      <point x="950" y="300"/>
      <point x="750" y="300" type="curve" smooth="yes"/>
      <point x="550" y="300"/>
      <point x="400" y="403"/>
      <point x="400" y="630" type="curve" smooth="yes"/>
      <point x="400" y="1500" type="line"/>
    </contour>
  </outline>
</glyph>
<glyph name="V" format="1">
  <advance width="1657"/>
  <unicode hex="0056"/>
  <outline>
    <contour>
      <point x="31" y="1500" type="line"/>
      <point x="632" y="0" type="line"/>
      <point x="932" y="0" type="line"/>
      <point x="1531" y="1500" type="line"/>
      <point x="1211" y="1500" type="line"/>
      <point x="777" y="401" type="line"/>
      <point x="351" y="1500" type="line"/>
    </contour>
  </outline>
</glyph>
<glyph name="W" format="1">
  <advance width="2134"/>
  <unicode hex="0057"/>
  <outline>
    <contour>
      <point x="1335" y="0" type="line"/>
      <point x="1635" y="0" type="line"/>
      <point x="2035" y="1500" type="line"/>
      <point x="1715" y="1500" type="line"/>
      <point x="1455" y="480" type="line"/>
      <point x="1195" y="1500" type="line"/>
      <point x="885" y="1500" type="line"/>
      <point x="615" y="480" type="line"/>
      <point x="354" y="1500" type="line"/>
      <point x="34" y="1500" type="line"/>
      <point x="435" y="0" type="line"/>
      <point x="735" y="0" type="line"/>
      <point x="1035" y="1100" type="line"/>
    </contour>
  </outline>
</glyph>
<glyph name="X" format="1">
  <advance width="1616"/>
  <unicode hex="0058"/>
  <outline>
    <contour>
      <point x="617" y="781" type="line"/>
      <point x="92" y="1500" type="line"/>
      <point x="444" y="1500" type="line"/>
      <point x="794" y="1023" type="line"/>
      <point x="1144" y="1500" type="line"/>
      <point x="1496" y="1500" type="line"/>
      <point x="971" y="781" type="line"/>
      <point x="1544" y="0" type="line"/>
      <point x="1188" y="0" type="line"/>
      <point x="794" y="539" type="line"/>
      <point x="400" y="0" type="line"/>
      <point x="44" y="0" type="line"/>
    </contour>
  </outline>
</glyph>
<glyph name="Y" format="1">
  <advance width="1534"/>
  <unicode hex="0059"/>
  <outline>
    <contour>
      <point x="35" y="1500" type="line"/>
      <point x="387" y="1500" type="line"/>
      <point x="735" y="1010" type="line"/>
      <point x="1091" y="1500" type="line"/>
      <point x="1435" y="1500" type="line"/>
      <point x="885" y="750" type="line"/>
      <point x="885" y="0" type="line"/>
      <point x="585" y="0" type="line"/>
      <point x="585" y="750" type="line"/>
    </contour>
  </outline>
</glyph>
<glyph name="Z" format="1">
  <advance width="1475"/>
  <unicode hex="005A"/>
  <outline>
    <contour>
      <point x="1299" y="0" type="line"/>
      <point x="98" y="0" type="line"/>
      <point x="99" y="100" type="line"/>
      <point x="798" y="1220" type="line"/>
      <point x="99" y="1220" type="line"/>
      <point x="98" y="1500" type="line"/>
      <point x="1299" y="1500" type="line"/>
      <point x="1299" y="1390" type="line"/>
      <point x="597" y="280" type="line"/>
      <point x="1299" y="280" type="line"/>
    </contour>
  </outline>
</glyph>
<glyph name="bracketleft" format="1">
  <advance width="758"/>
  <unicode hex="005B"/>
  <outline>
    <contour>
      <point x="99" y="-400" type="line"/>
      <point x="99" y="1899" type="line"/>
      <point x="379" y="1899" type="line"/>
      <point x="600" y="1900" type="line"/>
      <point x="601" y="1630" type="line"/>
      <point x="379" y="1630" type="line"/>
      <point x="379" y="-130" type="line"/>
      <point x="600" y="-130" type="line"/>
      <point x="600" y="-400" type="line"/>
    </contour>
  </outline>
</glyph>
<glyph name="backslash" format="1">
  <advance width="823"/>
  <unicode hex="005C"/>
  <outline>
    <contour>
      <point x="36" y="1444" type="line"/>
      <point x="231" y="1444" type="line"/>
      <point x="779" y="-60" type="line"/>
      <point x="584" y="-60" type="line"/>
    </contour>
  </outline>
</glyph>
<glyph name="bracketright" format="1">
  <advance width="800"/>
  <unicode hex="005D"/>
  <outline>
    <contour>
      <point x="100" y="-400" type="line"/>
      <point x="100" y="-130" type="line"/>
      <point x="321" y="-130" type="line"/>
      <point x="321" y="1630" type="line"/>
      <point x="99" y="1630" type="line"/>
      <point x="100" y="1900" type="line"/>
      <point x="321" y="1899" type="line"/>
      <point x="601" y="1899" type="line"/>
      <point x="601" y="-400" type="line"/>
    </contour>
  </outline>
</glyph>
<glyph name="asciicircum" format="1">
  <advance width="1000"/>
  <unicode hex="005E"/>
  <outline>
    <contour>
      <point x="100" y="1252" type="line"/>
      <point x="453" y="1752" type="line"/>
      <point x="802" y="1252" type="line"/>
      <point x="701" y="1252" type="line"/>
      <point x="451" y="1503" type="line"/>
      <point x="202" y="1252" type="line"/>
    </contour>
  </outline>
</glyph>
<glyph name="underscore" format="1">
  <advance width="1300"/>
  <unicode hex="005F"/>
  <outline>
    <contour>
      <point x="100" y="-100" type="line"/>
      <point x="1124" y="-100" type="line"/>
      <point x="1124" y="-200" type="line"/>
      <point x="100" y="-200" type="line"/>
    </contour>
  </outline>
</glyph>
<glyph name="a" format="1">
  <advance width="1099"/>
  <unicode hex="0061"/>
  <outline>
    <contour>
      <point x="119" y="880" type="line"/>
      <point x="246" y="960"/>
      <point x="392" y="1000"/>
      <point x="559" y="1000" type="curve" smooth="yes"/>
      <point x="799" y="1000"/>
      <point x="949" y="867"/>
      <point x="949" y="600" type="curve" smooth="yes"/>
      <point x="949" y="0" type="line"/>
      <point x="669" y="0" type="line"/>
      <point x="669" y="80" type="line"/>
      <point x="588" y="27"/>
      <point x="514" y="0"/>
      <point x="449" y="0" type="curve" smooth="yes"/>
      <point x="182" y="0"/>
      <point x="49" y="120"/>
      <point x="49" y="320" type="curve" smooth="yes"/>
      <point x="49" y="507"/>
      <point x="168" y="680"/>
      <point x="449" y="680" type="curve" smooth="yes"/>
      <point x="514" y="680"/>
      <point x="587" y="660"/>
      <point x="669" y="620" type="curve"/>
      <point x="669" y="650" type="line"/>
      <point x="668" y="723"/>
      <point x="614" y="763"/>
      <point x="509" y="770" type="curve"/>
      <point x="389" y="770"/>
      <point x="296" y="750"/>
      <point x="229" y="710" type="curve"/>
    </contour>
    <contour>
      <point x="669" y="413" type="line"/>
      <point x="642" y="464"/>
      <point x="579" y="490"/>
      <point x="479" y="490" type="curve"/>
      <point x="359" y="477"/>
      <point x="296" y="430"/>
      <point x="289" y="350" type="curve"/>
      <point x="296" y="271"/>
      <point x="359" y="228"/>
      <point x="479" y="221" type="curve"/>
      <point x="579" y="221"/>
      <point x="642" y="247"/>
      <point x="669" y="300" type="curve"/>
    </contour>
  </outline>
</glyph>
<glyph name="b" format="1">
  <advance width="1191"/>
  <unicode hex="0062"/>
  <outline>
    <contour>
      <point x="371" y="1500" type="line"/>
      <point x="371" y="919" type="line"/>
      <point x="418" y="966"/>
      <point x="491" y="993"/>
      <point x="591" y="1000" type="curve"/>
      <point x="898" y="1000"/>
      <point x="1091" y="767"/>
      <point x="1091" y="500" type="curve" smooth="yes"/>
      <point x="1091" y="233"/>
      <point x="898" y="0"/>
      <point x="591" y="0" type="curve" smooth="yes"/>
      <point x="519" y="0"/>
      <point x="446" y="27"/>
      <point x="371" y="80" type="curve"/>
      <point x="371" y="0" type="line"/>
      <point x="91" y="0" type="line"/>
      <point x="91" y="1499" type="line"/>
    </contour>
    <contour>
      <point x="371" y="410" type="line"/>
      <point x="384" y="310"/>
      <point x="454" y="250"/>
      <point x="581" y="230" type="curve"/>
      <point x="754" y="237"/>
      <point x="844" y="333"/>
      <point x="851" y="520" type="curve"/>
      <point x="831" y="673"/>
      <point x="741" y="756"/>
      <point x="581" y="769" type="curve"/>
      <point x="454" y="750"/>
      <point x="384" y="684"/>
      <point x="371" y="572" type="curve"/>
    </contour>
  </outline>
</glyph>
<glyph name="c" format="1">
  <advance width="1049"/>
  <unicode hex="0063"/>
  <outline>
    <contour>
      <point x="282" y="0"/>
      <point x="49" y="183"/>
      <point x="49" y="450" type="curve" smooth="yes"/>
      <point x="49" y="550" type="line" smooth="yes"/>
      <point x="49" y="817"/>
      <point x="282" y="1000"/>
      <point x="550" y="1000" type="curve" smooth="yes"/>
      <point x="710" y="1000"/>
      <point x="843" y="943"/>
      <point x="949" y="830" type="curve"/>
      <point x="749" y="680" type="line"/>
      <point x="689" y="740"/>
      <point x="622" y="770"/>
      <point x="549" y="770" type="curve" smooth="yes"/>
      <point x="416" y="770"/>
      <point x="299" y="647"/>
      <point x="299" y="500" type="curve" smooth="yes"/>
      <point x="299" y="353"/>
      <point x="402" y="230"/>
      <point x="549" y="230" type="curve" smooth="yes"/>
      <point x="622" y="230"/>
      <point x="689" y="260"/>
      <point x="749" y="320" type="curve"/>
      <point x="949" y="170" type="line"/>
      <point x="842" y="57"/>
      <point x="709" y="0"/>
      <point x="549" y="0" type="curve" smooth="yes"/>
    </contour>
  </outline>
</glyph>
<glyph name="d" format="1">
  <advance width="1195"/>
  <unicode hex="0064"/>
  <outline>
    <contour>
      <point x="1049" y="1499" type="line"/>
      <point x="1049" y="0" type="line"/>
      <point x="769" y="0" type="line"/>
      <point x="769" y="80" type="line"/>
      <point x="694" y="27"/>
      <point x="621" y="0"/>
      <point x="549" y="0" type="curve" smooth="yes"/>
      <point x="242" y="0"/>
      <point x="49" y="233"/>
      <point x="49" y="500" type="curve" smooth="yes"/>
      <point x="49" y="767"/>
      <point x="242" y="1000"/>
      <point x="549" y="1000" type="curve"/>
      <point x="649" y="993"/>
      <point x="722" y="966"/>
      <point x="769" y="919" type="curve"/>
      <point x="769" y="1500" type="line"/>
    </contour>
    <contour>
      <point x="769" y="572" type="line"/>
      <point x="756" y="684"/>
      <point x="686" y="750"/>
      <point x="559" y="769" type="curve"/>
      <point x="399" y="756"/>
      <point x="309" y="673"/>
      <point x="289" y="520" type="curve"/>
      <point x="296" y="333"/>
      <point x="386" y="237"/>
      <point x="559" y="230" type="curve"/>
      <point x="686" y="250"/>
      <point x="756" y="310"/>
      <point x="769" y="410" type="curve"/>
    </contour>
  </outline>
</glyph>
<glyph name="e" format="1">
  <advance width="1147"/>
  <unicode hex="0065"/>
  <outline>
    <contour>
      <point x="47" y="793"/>
      <point x="254" y="1000"/>
      <point x="547" y="1000" type="curve" smooth="yes"/>
      <point x="840" y="1000"/>
      <point x="1027" y="793"/>
      <point x="1027" y="500" type="curve" smooth="yes"/>
      <point x="1027" y="400" type="line"/>
      <point x="337" y="400" type="line"/>
      <point x="350" y="293"/>
      <point x="440" y="230"/>
      <point x="547" y="230" type="curve" smooth="yes"/>
      <point x="640" y="230"/>
      <point x="724" y="257"/>
      <point x="797" y="310" type="curve"/>
      <point x="957" y="150" type="line"/>
      <point x="884" y="50"/>
      <point x="747" y="0"/>
      <point x="547" y="0" type="curve" smooth="yes"/>
      <point x="254" y="0"/>
      <point x="47" y="207"/>
      <point x="47" y="500" type="curve" smooth="yes"/>
    </contour>
    <contour>
      <point x="747" y="600" type="line"/>
      <point x="747" y="707"/>
      <point x="654" y="770"/>
      <point x="547" y="770" type="curve" smooth="yes"/>
      <point x="440" y="770"/>
      <point x="347" y="707"/>
      <point x="347" y="600" type="curve"/>
    </contour>
  </outline>
</glyph>
<glyph name="f" format="1">
  <advance width="772"/>
  <unicode hex="0066"/>
  <outline>
    <contour>
      <point x="147" y="0" type="line"/>
      <point x="147" y="800" type="line"/>
      <point x="-3" y="800" type="line"/>
      <point x="-3" y="1026" type="line"/>
      <point x="147" y="1026" type="line"/>
      <point x="147" y="1160" type="line" smooth="yes"/>
      <point x="147" y="1360"/>
      <point x="290" y="1500"/>
      <point x="517" y="1500" type="curve" smooth="yes"/>
      <point x="637" y="1500"/>
      <point x="730" y="1467"/>
      <point x="797" y="1400" type="curve"/>
      <point x="648" y="1234" type="line"/>
      <point x="629" y="1255"/>
      <point x="596" y="1265"/>
      <point x="548" y="1265" type="curve" smooth="yes"/>
      <point x="477" y="1265"/>
      <point x="428" y="1227"/>
      <point x="428" y="1120" type="curve" smooth="yes"/>
      <point x="428" y="1026" type="line"/>
      <point x="578" y="1026" type="line"/>
      <point x="578" y="800" type="line"/>
      <point x="428" y="800" type="line"/>
      <point x="428" y="0" type="line"/>
    </contour>
  </outline>
</glyph>
<glyph name="g" format="1">
  <advance width="1144"/>
  <unicode hex="0067"/>
  <outline>
    <contour>
      <point x="1044" y="970" type="line"/>
      <point x="1044" y="80" type="line" smooth="yes"/>
      <point x="1044" y="-200"/>
      <point x="857" y="-409"/>
      <point x="604" y="-420" type="curve"/>
      <point x="544" y="-426" type="line"/>
      <point x="351" y="-422"/>
      <point x="201" y="-367"/>
      <point x="94" y="-260" type="curve"/>
      <point x="224" y="-110" type="line"/>
      <point x="297" y="-163"/>
      <point x="386" y="-193"/>
      <point x="491" y="-200" type="curve"/>
      <point x="704" y="-200"/>
      <point x="764" y="-80"/>
      <point x="764" y="40" type="curve" smooth="yes"/>
      <point x="764" y="90" type="line"/>
      <point x="689" y="30"/>
      <point x="603" y="0"/>
      <point x="504" y="0" type="curve" smooth="yes"/>
      <point x="197" y="0"/>
      <point x="44" y="193"/>
      <point x="44" y="500" type="curve" smooth="yes"/>
      <point x="44" y="793"/>
      <point x="217" y="1000"/>
      <point x="524" y="1000" type="curve"/>
      <point x="637" y="993"/>
      <point x="717" y="963"/>
      <point x="764" y="909" type="curve"/>
      <point x="764" y="1000" type="line"/>
    </contour>
    <contour>
      <point x="764" y="572" type="line"/>
      <point x="751" y="684"/>
      <point x="681" y="750"/>
      <point x="554" y="769" type="curve"/>
      <point x="387" y="763"/>
      <point x="297" y="680"/>
      <point x="284" y="520" type="curve"/>
      <point x="291" y="333"/>
      <point x="381" y="237"/>
      <point x="554" y="230" type="curve"/>
      <point x="681" y="250"/>
      <point x="751" y="310"/>
      <point x="764" y="410" type="curve"/>
    </contour>
  </outline>
</glyph>
<glyph name="h" format="1">
  <advance width="1100"/>
  <unicode hex="0068"/>
  <outline>
    <contour>
      <point x="380" y="0" type="line"/>
      <point x="100" y="0" type="line"/>
      <point x="100" y="1500" type="line"/>
      <point x="380" y="1500" type="line"/>
      <point x="380" y="910" type="line"/>
      <point x="447" y="970"/>
      <point x="527" y="1000"/>
      <point x="620" y="1000" type="curve" smooth="yes"/>
      <point x="873" y="1000"/>
      <point x="1010" y="820"/>
      <point x="1010" y="620" type="curve" smooth="yes"/>
      <point x="1010" y="0" type="line"/>
      <point x="730" y="0" type="line"/>
      <point x="730" y="550" type="line" smooth="yes"/>
      <point x="730" y="683"/>
      <point x="664" y="759"/>
      <point x="529" y="763" type="curve"/>
      <point x="471" y="759"/>
      <point x="421" y="730"/>
      <point x="380" y="676" type="curve"/>
    </contour>
  </outline>
</glyph>
<glyph name="i" format="1">
  <advance width="524"/>
  <unicode hex="0069"/>
  <outline>
    <contour>
      <point x="100" y="0" type="line"/>
      <point x="100" y="1001" type="line"/>
      <point x="380" y="1001" type="line"/>
      <point x="380" y="0" type="line"/>
    </contour>
    <contour>
      <point x="90" y="1160"/>
      <point x="147" y="1100"/>
      <point x="240" y="1100" type="curve" smooth="yes"/>
      <point x="333" y="1100"/>
      <point x="390" y="1160"/>
      <point x="390" y="1240" type="curve" smooth="yes"/>
      <point x="390" y="1320"/>
      <point x="334" y="1381"/>
      <point x="238" y="1381" type="curve" smooth="yes"/>
      <point x="147" y="1381"/>
      <point x="90" y="1320"/>
      <point x="90" y="1240" type="curve" smooth="yes"/>
    </contour>
  </outline>
</glyph>
<glyph name="j" format="1">
  <advance width="595"/>
  <unicode hex="006A"/>
  <outline>
    <contour>
      <point x="-41" y="-200" type="line"/>
      <point x="93" y="-194"/>
      <point x="160" y="-121"/>
      <point x="160" y="19" type="curve" smooth="yes"/>
      <point x="160" y="1000" type="line"/>
      <point x="441" y="1000" type="line"/>
      <point x="440" y="-31" type="line" smooth="yes"/>
      <point x="440" y="-270"/>
      <point x="299" y="-430"/>
      <point x="62" y="-430" type="curve" smooth="yes"/>
      <point x="-140" y="-430" type="line"/>
      <point x="-140" y="-200" type="line"/>
    </contour>
    <contour>
      <point x="149" y="1160"/>
      <point x="206" y="1100"/>
      <point x="299" y="1100" type="curve" smooth="yes"/>
      <point x="392" y="1100"/>
      <point x="449" y="1160"/>
      <point x="449" y="1240" type="curve" smooth="yes"/>
      <point x="449" y="1320"/>
      <point x="393" y="1381"/>
      <point x="297" y="1381" type="curve" smooth="yes"/>
      <point x="206" y="1381"/>
      <point x="149" y="1320"/>
      <point x="149" y="1240" type="curve" smooth="yes"/>
    </contour>
  </outline>
</glyph>
<glyph name="k" format="1">
  <advance width="1200"/>
  <unicode hex="006B"/>
  <outline>
    <contour>
      <point x="126" y="1500" type="line"/>
      <point x="426" y="1500" type="line"/>
      <point x="426" y="651" type="line"/>
      <point x="713" y="1000" type="line"/>
      <point x="1050" y="1000" type="line"/>
      <point x="676" y="551" type="line"/>
      <point x="1150" y="0" type="line"/>
      <point x="760" y="0" type="line"/>
      <point x="426" y="399" type="line"/>
      <point x="426" y="0" type="line"/>
      <point x="126" y="0" type="line"/>
    </contour>
  </outline>
</glyph>
<glyph name="m" format="1">
  <advance width="1773"/>
  <unicode hex="006D"/>
  <outline>
    <contour>
      <point x="376" y="0" type="line"/>
      <point x="96" y="0" type="line"/>
      <point x="96" y="971" type="line"/>
      <point x="376" y="1001" type="line"/>
      <point x="376" y="912" type="line"/>
      <point x="439" y="971"/>
      <point x="519" y="1000"/>
      <point x="616" y="1000" type="curve" smooth="yes"/>
      <point x="743" y="1000"/>
      <point x="839" y="962"/>
      <point x="906" y="885" type="curve"/>
      <point x="979" y="962"/>
      <point x="1089" y="1000"/>
      <point x="1236" y="1000" type="curve" smooth="yes"/>
      <point x="1489" y="1000"/>
      <point x="1626" y="820"/>
      <point x="1626" y="620" type="curve" smooth="yes"/>
      <point x="1626" y="0" type="line"/>
      <point x="1346" y="0" type="line"/>
      <point x="1346" y="550" type="line" smooth="yes"/>
      <point x="1346" y="683"/>
      <point x="1290" y="759"/>
      <point x="1155" y="763" type="curve"/>
      <point x="1100" y="759"/>
      <point x="1052" y="722"/>
      <point x="1011" y="653" type="curve"/>
      <point x="1008" y="632"/>
      <point x="1006" y="611"/>
      <point x="1006" y="590" type="curve" smooth="yes"/>
      <point x="1006" y="0" type="line"/>
      <point x="726" y="0" type="line"/>
      <point x="726" y="550" type="line" smooth="yes"/>
      <point x="726" y="683"/>
      <point x="670" y="759"/>
      <point x="535" y="763" type="curve"/>
      <point x="474" y="759"/>
      <point x="421" y="718"/>
      <point x="376" y="640" type="curve"/>
    </contour>
  </outline>
</glyph>
<glyph name="o" format="1">
  <advance width="1152"/>
  <unicode hex="006F"/>
  <outline>
    <contour>
      <point x="261" y="-10"/>
      <point x="42" y="211"/>
      <point x="42" y="500" type="curve" smooth="yes"/>
      <point x="42" y="791"/>
      <point x="261" y="1010"/>
      <point x="552" y="1010" type="curve" smooth="yes"/>
      <point x="843" y="1010"/>
      <point x="1062" y="791"/>
      <point x="1062" y="500" type="curve" smooth="yes"/>
      <point x="1062" y="209"/>
      <point x="843" y="-10"/>
      <point x="552" y="-10" type="curve" smooth="yes"/>
    </contour>
    <contour>
      <point x="703" y="232"/>
      <point x="807" y="347"/>
      <point x="807" y="499" type="curve" smooth="yes"/>
      <point x="807" y="651"/>
      <point x="703" y="767"/>
      <point x="550" y="767" type="curve" smooth="yes"/>
      <point x="399" y="767"/>
      <point x="295" y="651"/>
      <point x="295" y="499" type="curve" smooth="yes"/>
      <point x="295" y="347"/>
      <point x="399" y="232"/>
      <point x="551" y="232" type="curve" smooth="yes"/>
    </contour>
  </outline>
</glyph>
<glyph name="p" format="1">
  <advance width="1196"/>
  <unicode hex="0070"/>
  <outline>
    <contour>
      <point x="96" y="-420" type="line"/>
      <point x="96" y="971" type="line"/>
      <point x="376" y="1001" type="line"/>
      <point x="376" y="921" type="line"/>
      <point x="451" y="974"/>
      <point x="524" y="1001"/>
      <point x="596" y="1001" type="curve" smooth="yes"/>
      <point x="903" y="1001"/>
      <point x="1096" y="768"/>
      <point x="1096" y="501" type="curve" smooth="yes"/>
      <point x="1096" y="234"/>
      <point x="903" y="1"/>
      <point x="596" y="1" type="curve"/>
      <point x="496" y="8"/>
      <point x="423" y="35"/>
      <point x="376" y="82" type="curve"/>
      <point x="376" y="-421" type="line"/>
    </contour>
    <contour>
      <point x="376" y="429" type="line"/>
      <point x="389" y="317"/>
      <point x="459" y="251"/>
      <point x="586" y="232" type="curve"/>
      <point x="746" y="245"/>
      <point x="836" y="328"/>
      <point x="856" y="481" type="curve"/>
      <point x="849" y="668"/>
      <point x="759" y="764"/>
      <point x="586" y="771" type="curve"/>
      <point x="459" y="751"/>
      <point x="389" y="691"/>
      <point x="376" y="591" type="curve"/>
    </contour>
  </outline>
</glyph>
<glyph name="q" format="1">
  <advance width="1172"/>
  <unicode hex="0071"/>
  <outline>
    <contour>
      <point x="764" y="-421" type="line"/>
      <point x="764" y="82" type="line"/>
      <point x="717" y="35"/>
      <point x="644" y="8"/>
      <point x="544" y="1" type="curve"/>
      <point x="237" y="1"/>
      <point x="44" y="234"/>
      <point x="44" y="501" type="curve" smooth="yes"/>
      <point x="44" y="768"/>
      <point x="237" y="1001"/>
      <point x="544" y="1001" type="curve" smooth="yes"/>
      <point x="616" y="1001"/>
      <point x="689" y="974"/>
      <point x="764" y="921" type="curve"/>
      <point x="764" y="1001" type="line"/>
      <point x="1044" y="971" type="line"/>
      <point x="1044" y="-420" type="line"/>
    </contour>
    <contour>
      <point x="764" y="591" type="line"/>
      <point x="751" y="691"/>
      <point x="681" y="751"/>
      <point x="554" y="771" type="curve"/>
      <point x="381" y="764"/>
      <point x="291" y="668"/>
      <point x="284" y="481" type="curve"/>
      <point x="304" y="328"/>
      <point x="394" y="245"/>
      <point x="554" y="232" type="curve"/>
      <point x="681" y="251"/>
      <point x="751" y="317"/>
      <point x="764" y="429" type="curve"/>
    </contour>
  </outline>
</glyph>
<glyph name="r" format="1">
  <advance width="796"/>
  <unicode hex="0072"/>
  <outline>
    <contour>
      <point x="358" y="890" type="line"/>
      <point x="429" y="963"/>
      <point x="516" y="1000"/>
      <point x="619" y="1000" type="curve" smooth="yes"/>
      <point x="652" y="1000"/>
      <point x="683" y="997"/>
      <point x="712" y="992" type="curve"/>
      <point x="668" y="716" type="line"/>
      <point x="635" y="745"/>
      <point x="589" y="761"/>
      <point x="528" y="763" type="curve"/>
      <point x="460" y="758"/>
      <point x="403" y="709"/>
      <point x="358" y="615" type="curve"/>
      <point x="358" y="0" type="line"/>
      <point x="78" y="0" type="line"/>
      <point x="78" y="971" type="line"/>
      <point x="358" y="1001" type="line"/>
    </contour>
  </outline>
</glyph>
<glyph name="s" format="1">
  <advance width="928"/>
  <unicode hex="0073"/>
  <outline>
    <contour>
      <point x="634" y="1006"/>
      <point x="720" y="960"/>
      <point x="811" y="871" type="curve"/>
      <point x="655" y="695" type="line"/>
      <point x="610" y="749"/>
      <point x="553" y="776"/>
      <point x="485" y="776" type="curve" smooth="yes"/>
      <point x="418" y="776"/>
      <point x="373" y="764"/>
      <point x="350" y="739" type="curve" smooth="yes"/>
      <point x="327" y="714"/>
      <point x="327" y="691"/>
      <point x="350" y="671" type="curve" smooth="yes"/>
      <point x="373" y="650"/>
      <point x="418" y="633"/>
      <point x="485" y="620" type="curve"/>
      <point x="684" y="601"/>
      <point x="824" y="523"/>
      <point x="824" y="288" type="curve" smooth="yes"/>
      <point x="824" y="99"/>
      <point x="650" y="-10"/>
      <point x="451" y="-10" type="curve" smooth="yes"/>
      <point x="262" y="-10"/>
      <point x="143" y="48"/>
      <point x="52" y="139" type="curve"/>
      <point x="207" y="314" type="line"/>
      <point x="252" y="260"/>
      <point x="323" y="229"/>
      <point x="418" y="220" type="curve"/>
      <point x="495" y="220"/>
      <point x="544" y="233"/>
      <point x="567" y="258" type="curve" smooth="yes"/>
      <point x="589" y="283"/>
      <point x="592" y="308"/>
      <point x="577" y="333" type="curve" smooth="yes"/>
      <point x="561" y="358"/>
      <point x="508" y="374"/>
      <point x="418" y="383" type="curve" smooth="yes"/>
      <point x="255" y="402"/>
      <point x="93" y="463"/>
      <point x="93" y="688" type="curve" smooth="yes"/>
      <point x="93" y="895"/>
      <point x="283" y="1006"/>
      <point x="446" y="1006" type="curve" smooth="yes"/>
    </contour>
  </outline>
</glyph>
<glyph name="t" format="1">
  <advance width="787"/>
  <unicode hex="0074"/>
  <outline>
    <contour>
      <point x="717" y="47" type="line"/>
      <point x="669" y="16"/>
      <point x="614" y="0"/>
      <point x="552" y="0" type="curve" smooth="yes"/>
      <point x="325" y="0"/>
      <point x="182" y="140"/>
      <point x="182" y="340" type="curve" smooth="yes"/>
      <point x="182" y="773" type="line"/>
      <point x="32" y="773" type="line"/>
      <point x="32" y="999" type="line"/>
      <point x="182" y="999" type="line"/>
      <point x="182" y="1270" type="line"/>
      <point x="463" y="1300" type="line"/>
      <point x="463" y="999" type="line"/>
      <point x="613" y="999" type="line"/>
      <point x="613" y="773" type="line"/>
      <point x="463" y="773" type="line"/>
      <point x="463" y="380" type="line" smooth="yes"/>
      <point x="463" y="273"/>
      <point x="512" y="235"/>
      <point x="583" y="235" type="curve" smooth="yes"/>
      <point x="594" y="235"/>
      <point x="619" y="239"/>
      <point x="658" y="248" type="curve"/>
    </contour>
  </outline>
</glyph>
<glyph name="u" format="1">
  <advance width="1125"/>
  <unicode hex="0075"/>
  <outline>
    <contour>
      <point x="703" y="1001" type="line"/>
      <point x="983" y="1001" type="line"/>
      <point x="983" y="0" type="line"/>
      <point x="703" y="0" type="line"/>
      <point x="703" y="91" type="line"/>
      <point x="636" y="31"/>
      <point x="556" y="1"/>
      <point x="463" y="1" type="curve" smooth="yes"/>
      <point x="210" y="1"/>
      <point x="73" y="181"/>
      <point x="73" y="381" type="curve" smooth="yes"/>
      <point x="73" y="1001" type="line"/>
      <point x="353" y="1001" type="line"/>
      <point x="353" y="451" type="line" smooth="yes"/>
      <point x="353" y="318"/>
      <point x="419" y="242"/>
      <point x="554" y="238" type="curve"/>
      <point x="612" y="242"/>
      <point x="662" y="281"/>
      <point x="703" y="355" type="curve"/>
    </contour>
  </outline>
</glyph>
<glyph name="v" format="1">
  <advance width="1142"/>
  <unicode hex="0076"/>
  <outline>
    <contour>
      <point x="17" y="1000" type="line"/>
      <point x="419" y="0" type="line"/>
      <point x="659" y="0" type="line"/>
      <point x="1060" y="1000" type="line"/>
      <point x="776" y="1000" type="line"/>
      <point x="536" y="375" type="line"/>
      <point x="301" y="1000" type="line"/>
    </contour>
  </outline>
</glyph>
<glyph name="w" format="1">
  <advance width="1460"/>
  <unicode hex="0077"/>
  <outline>
    <contour>
      <point x="843" y="0" type="line"/>
      <point x="1093" y="0" type="line"/>
      <point x="1360" y="1001" type="line"/>
      <point x="1097" y="1001" type="line"/>
      <point x="943" y="400" type="line"/>
      <point x="800" y="1001" type="line"/>
      <point x="593" y="1001" type="line"/>
      <point x="443" y="410" type="line"/>
      <point x="288" y="1001" type="line"/>
      <point x="25" y="1001" type="line"/>
      <point x="293" y="0" type="line"/>
      <point x="543" y="0" type="line"/>
      <point x="693" y="501" type="line"/>
    </contour>
  </outline>
</glyph>
<glyph name="x" format="1">
  <advance width="1096"/>
  <unicode hex="0078"/>
  <outline>
    <contour>
      <point x="369" y="521" type="line"/>
      <point x="45" y="998" type="line"/>
      <point x="329" y="998" type="line"/>
      <point x="512" y="730" type="line"/>
      <point x="695" y="998" type="line"/>
      <point x="979" y="998" type="line"/>
      <point x="655" y="521" type="line"/>
      <point x="1011" y="0" type="line"/>
      <point x="724" y="0" type="line"/>
      <point x="512" y="312" type="line"/>
      <point x="300" y="0" type="line"/>
      <point x="13" y="0" type="line"/>
    </contour>
  </outline>
</glyph>
<glyph name="y" format="1">
  <advance width="1128"/>
  <unicode hex="0079"/>
  <outline>
    <contour>
      <point x="720" y="1000" type="line"/>
      <point x="1000" y="1000" type="line"/>
      <point x="1000" y="80" type="line" smooth="yes"/>
      <point x="1000" y="-200"/>
      <point x="800" y="-409"/>
      <point x="560" y="-420" type="curve"/>
      <point x="500" y="-426" type="line"/>
      <point x="360" y="-422"/>
      <point x="233" y="-367"/>
      <point x="120" y="-260" type="curve"/>
      <point x="250" y="-110" type="line"/>
      <point x="330" y="-170"/>
      <point x="406" y="-203"/>
      <point x="477" y="-210" type="curve"/>
      <point x="650" y="-210"/>
      <point x="720" y="-120"/>
      <point x="720" y="40" type="curve" smooth="yes"/>
      <point x="720" y="91" type="line"/>
      <point x="649" y="30"/>
      <point x="568" y="0"/>
      <point x="475" y="0" type="curve" smooth="yes"/>
      <point x="222" y="0"/>
      <point x="85" y="180"/>
      <point x="85" y="380" type="curve" smooth="yes"/>
      <point x="85" y="1000" type="line"/>
      <point x="365" y="1000" type="line"/>
      <point x="365" y="450" type="line" smooth="yes"/>
      <point x="365" y="317"/>
      <point x="431" y="241"/>
      <point x="566" y="237" type="curve"/>
      <point x="625" y="241"/>
      <point x="676" y="277"/>
      <point x="720" y="346" type="curve"/>
    </contour>
  </outline>
</glyph>
<glyph name="z" format="1">
  <advance width="1013"/>
  <unicode hex="007A"/>
  <outline>
    <contour>
      <point x="884" y="0" type="line"/>
      <point x="85" y="0" type="line"/>
      <point x="85" y="67" type="line"/>
      <point x="501" y="762" type="line"/>
      <point x="85" y="762" type="line"/>
      <point x="85" y="998" type="line"/>
      <point x="884" y="998" type="line"/>
      <point x="884" y="925" type="line"/>
      <point x="467" y="236" type="line"/>
      <point x="884" y="236" type="line"/>
    </contour>
  </outline>
</glyph>
<glyph name="bar" format="1">
  <advance width="774"/>
  <unicode hex="007C"/>
  <outline>
    <contour>
      <point x="195" y="-400" type="line"/>
      <point x="195" y="1899" type="line"/>
      <point x="475" y="1899" type="line"/>
      <point x="475" y="-400" type="line"/>
    </contour>
  </outline>
</glyph>
<glyph name="sterling" format="1">
  <advance width="1365"/>
  <unicode hex="00A3"/>
  <outline>
    <contour>
      <point x="189" y="799" type="line"/>
      <point x="164" y="978"/>
      <point x="180" y="1242"/>
      <point x="354" y="1390" type="curve" smooth="yes"/>
      <point x="441" y="1463"/>
      <point x="547" y="1500"/>
      <point x="674" y="1500" type="curve" smooth="yes"/>
      <point x="913" y="1500"/>
      <point x="1030" y="1443"/>
      <point x="1163" y="1310" type="curve"/>
      <point x="993" y="1080" type="line"/>
      <point x="926" y="1160"/>
      <point x="833" y="1203"/>
      <point x="713" y="1210" type="curve"/>
      <point x="526" y="1197"/>
      <point x="455" y="1107"/>
      <point x="448" y="920" type="curve" smooth="yes"/>
      <point x="447" y="879"/>
      <point x="449" y="839"/>
      <point x="456" y="799" type="curve"/>
      <point x="892" y="799" type="line"/>
      <point x="892" y="631" type="line"/>
      <point x="508" y="631" type="line"/>
      <point x="541" y="541"/>
      <point x="536" y="407"/>
      <point x="492" y="230" type="curve"/>
      <point x="1192" y="230" type="line"/>
      <point x="1192" y="0" type="line"/>
      <point x="162" y="0" type="line"/>
      <point x="162" y="230" type="line"/>
      <point x="269" y="343"/>
      <point x="294" y="472"/>
      <point x="238" y="615" type="curve"/>
      <point x="235" y="620"/>
      <point x="233" y="626"/>
      <point x="231" y="631" type="curve"/>
      <point x="91" y="631" type="line"/>
      <point x="91" y="799" type="line"/>
    </contour>
  </outline>
</glyph>
<glyph name="copyright" format="1">
  <advance width="1674"/>
  <unicode hex="00A9"/>
  <outline>
    <contour>
      <point x="1043" y="1462"/>
      <point x="1235" y="1377"/>
      <point x="1374" y="1232" type="curve" smooth="yes"/>
      <point x="1506" y="1096"/>
      <point x="1580" y="906"/>
      <point x="1580" y="718" type="curve" smooth="yes"/>
      <point x="1580" y="529"/>
      <point x="1507" y="344"/>
      <point x="1370" y="203" type="curve" smooth="yes"/>
      <point x="1230" y="56"/>
      <point x="1041" y="-24"/>
      <point x="833" y="-24" type="curve" smooth="yes"/>
      <point x="629" y="-24"/>
      <point x="443" y="58"/>
      <point x="302" y="205" type="curve" smooth="yes"/>
      <point x="165" y="345"/>
      <point x="94" y="526"/>
      <point x="94" y="718" type="curve" smooth="yes"/>
      <point x="94" y="909"/>
      <point x="165" y="1093"/>
      <point x="300" y="1232" type="curve" smooth="yes"/>
      <point x="436" y="1377"/>
      <point x="631" y="1462"/>
      <point x="840" y="1462" type="curve" smooth="yes"/>
    </contour>
    <contour>
      <point x="246" y="1081"/>
      <point x="166" y="906"/>
      <point x="166" y="718" type="curve" smooth="yes"/>
      <point x="166" y="529"/>
      <point x="242" y="361"/>
      <point x="375" y="233" type="curve" smooth="yes"/>
      <point x="506" y="112"/>
      <point x="663" y="48"/>
      <point x="834" y="48" type="curve" smooth="yes"/>
      <point x="1007" y="48"/>
      <point x="1168" y="111"/>
      <point x="1297" y="231" type="curve" smooth="yes"/>
      <point x="1430" y="360"/>
      <point x="1508" y="531"/>
      <point x="1508" y="718" type="curve" smooth="yes"/>
      <point x="1508" y="903"/>
      <point x="1429" y="1080"/>
      <point x="1301" y="1204" type="curve" smooth="yes"/>
      <point x="1173" y="1325"/>
      <point x="1008" y="1390"/>
      <point x="839" y="1390" type="curve" smooth="yes"/>
      <point x="666" y="1390"/>
      <point x="504" y="1329"/>
      <point x="361" y="1193" type="curve" smooth="yes"/>
    </contour>
    <contour>
      <point x="562" y="228"/>
      <point x="352" y="435"/>
      <point x="352" y="714" type="curve" smooth="yes"/>
      <point x="353" y="987"/>
      <point x="562" y="1198"/>
      <point x="837" y="1198" type="curve" smooth="yes"/>
      <point x="975" y="1198"/>
      <point x="1094" y="1155"/>
      <point x="1193" y="1068" type="curve"/>
      <point x="1064" y="927" type="line"/>
      <point x="998" y="978"/>
      <point x="922" y="1004"/>
      <point x="837" y="1004" type="curve" smooth="yes"/>
      <point x="662" y="1004"/>
      <point x="546" y="884"/>
      <point x="546" y="716" type="curve" smooth="yes"/>
      <point x="547" y="535"/>
      <point x="663" y="421"/>
      <point x="838" y="421" type="curve" smooth="yes"/>
      <point x="925" y="421"/>
      <point x="1001" y="447"/>
      <point x="1064" y="498" type="curve"/>
      <point x="1193" y="356" type="line"/>
      <point x="1094" y="270"/>
      <point x="976" y="227"/>
      <point x="837" y="227" type="curve" smooth="yes"/>
    </contour>
  </outline>
</glyph>
<glyph name="guillemotleft" format="1">
  <advance width="987"/>
  <unicode hex="00AB"/>
  <outline>
    <contour>
      <point x="951" y="730" type="line"/>
      <point x="700" y="481" type="line"/>
      <point x="951" y="231" type="line"/>
      <point x="951" y="130" type="line"/>
      <point x="450" y="479" type="line"/>
      <point x="951" y="832" type="line"/>
    </contour>
    <contour>
      <point x="601" y="730" type="line"/>
      <point x="350" y="481" type="line"/>
      <point x="601" y="231" type="line"/>
      <point x="601" y="130" type="line"/>
      <point x="100" y="479" type="line"/>
      <point x="601" y="832" type="line"/>
    </contour>
  </outline>
</glyph>
<glyph name="registered" format="1">
  <advance width="1674"/>
  <unicode hex="00AE"/>
  <outline>
    <contour>
      <point x="1043" y="1462"/>
      <point x="1235" y="1377"/>
      <point x="1374" y="1232" type="curve" smooth="yes"/>
      <point x="1506" y="1096"/>
      <point x="1580" y="906"/>
      <point x="1580" y="718" type="curve" smooth="yes"/>
      <point x="1580" y="529"/>
      <point x="1507" y="344"/>
      <point x="1370" y="203" type="curve" smooth="yes"/>
      <point x="1230" y="56"/>
      <point x="1041" y="-24"/>
      <point x="833" y="-24" type="curve" smooth="yes"/>
      <point x="629" y="-24"/>
      <point x="443" y="58"/>
      <point x="302" y="205" type="curve" smooth="yes"/>
      <point x="165" y="345"/>
      <point x="94" y="526"/>
      <point x="94" y="718" type="curve" smooth="yes"/>
      <point x="94" y="909"/>
      <point x="165" y="1093"/>
      <point x="300" y="1232" type="curve" smooth="yes"/>
      <point x="436" y="1377"/>
      <point x="631" y="1462"/>
      <point x="840" y="1462" type="curve" smooth="yes"/>
    </contour>
    <contour>
      <point x="246" y="1081"/>
      <point x="166" y="906"/>
      <point x="166" y="718" type="curve" smooth="yes"/>
      <point x="166" y="529"/>
      <point x="242" y="361"/>
      <point x="375" y="233" type="curve" smooth="yes"/>
      <point x="506" y="112"/>
      <point x="663" y="48"/>
      <point x="834" y="48" type="curve" smooth="yes"/>
      <point x="1007" y="48"/>
      <point x="1168" y="111"/>
      <point x="1297" y="231" type="curve" smooth="yes"/>
      <point x="1430" y="360"/>
      <point x="1508" y="531"/>
      <point x="1508" y="718" type="curve" smooth="yes"/>
      <point x="1508" y="903"/>
      <point x="1429" y="1080"/>
      <point x="1301" y="1204" type="curve" smooth="yes"/>
      <point x="1173" y="1325"/>
      <point x="1008" y="1390"/>
      <point x="839" y="1390" type="curve" smooth="yes"/>
      <point x="666" y="1390"/>
      <point x="504" y="1329"/>
      <point x="361" y="1193" type="curve" smooth="yes"/>
    </contour>
    <contour>
      <point x="658" y="809" type="line"/>
      <point x="908" y="809" type="line" smooth="yes"/>
      <point x="980" y="810"/>
      <point x="1017" y="842"/>
      <point x="1019" y="907" type="curve"/>
      <point x="1017" y="966"/>
      <point x="981" y="996"/>
      <point x="910" y="999" type="curve"/>
      <point x="658" y="999" type="line"/>
    </contour>
    <contour>
      <point x="1240" y="272" type="line"/>
      <point x="1035" y="272" type="line"/>
      <point x="820" y="642" type="line"/>
      <point x="658" y="642" type="line"/>
      <point x="658" y="272" type="line"/>
      <point x="479" y="272" type="line"/>
      <point x="479" y="1166" type="line"/>
      <point x="869" y="1166" type="line" smooth="yes"/>
      <point x="1078" y="1166"/>
      <point x="1182" y="1080"/>
      <point x="1182" y="909" type="curve" smooth="yes"/>
      <point x="1182" y="780"/>
      <point x="1127" y="697"/>
      <point x="1017" y="662" type="curve"/>
    </contour>
  </outline>
</glyph>
<glyph name="degree" format="1">
  <advance width="772"/>
  <unicode hex="00B0"/>
  <outline>
    <contour>
      <point x="537" y="1307"/>
      <point x="446" y="1373"/>
      <point x="363" y="1373" type="curve" smooth="yes"/>
      <point x="280" y="1373"/>
      <point x="187" y="1307"/>
      <point x="187" y="1198" type="curve" smooth="yes"/>
      <point x="187" y="1091"/>
      <point x="280" y="1023"/>
      <point x="363" y="1023" type="curve" smooth="yes"/>
      <point x="446" y="1023"/>
      <point x="537" y="1090"/>
      <point x="537" y="1198" type="curve" smooth="yes"/>
    </contour>
    <contour>
      <point x="541" y="1500"/>
      <point x="664" y="1352"/>
      <point x="664" y="1197" type="curve" smooth="yes"/>
      <point x="664" y="1045"/>
      <point x="539" y="896"/>
      <point x="360" y="896" type="curve" smooth="yes"/>
      <point x="181" y="896"/>
      <point x="60" y="1041"/>
      <point x="60" y="1197" type="curve" smooth="yes"/>
      <point x="60" y="1354"/>
      <point x="183" y="1500"/>
      <point x="362" y="1500" type="curve" smooth="yes"/>
    </contour>
  </outline>
</glyph>
<glyph name="guillemotright" format="1">
  <advance width="987"/>
  <unicode hex="00BB"/>
  <outline>
    <contour>
      <point x="100" y="832" type="line"/>
      <point x="601" y="479" type="line"/>
      <point x="100" y="130" type="line"/>
      <point x="100" y="231" type="line"/>
      <point x="351" y="481" type="line"/>
      <point x="100" y="730" type="line"/>
    </contour>
    <contour>
      <point x="450" y="832" type="line"/>
      <point x="951" y="479" type="line"/>
      <point x="450" y="130" type="line"/>
      <point x="450" y="231" type="line"/>
      <point x="701" y="481" type="line"/>
      <point x="450" y="730" type="line"/>
    </contour>
  </outline>
</glyph>
<glyph name="divide" format="1">
  <advance width="1108"/>
  <unicode hex="00F7"/>
  <outline>
    <contour>
      <point x="80" y="637" type="line"/>
      <point x="80" y="797" type="line"/>
      <point x="1028" y="797" type="line"/>
      <point x="1028" y="637" type="line"/>
    </contour>
    <contour>
      <point x="400" y="979"/>
      <point x="457" y="919"/>
      <point x="550" y="919" type="curve" smooth="yes"/>
      <point x="643" y="919"/>
      <point x="700" y="979"/>
      <point x="700" y="1059" type="curve" smooth="yes"/>
      <point x="700" y="1139"/>
      <point x="644" y="1200"/>
      <point x="548" y="1200" type="curve" smooth="yes"/>
      <point x="457" y="1200"/>
      <point x="400" y="1139"/>
      <point x="400" y="1059" type="curve" smooth="yes"/>
    </contour>
    <contour>
      <point x="400" y="279"/>
      <point x="457" y="219"/>
      <point x="550" y="219" type="curve" smooth="yes"/>
      <point x="643" y="219"/>
      <point x="700" y="279"/>
      <point x="700" y="359" type="curve" smooth="yes"/>
      <point x="700" y="439"/>
      <point x="644" y="500"/>
      <point x="548" y="500" type="curve" smooth="yes"/>
      <point x="457" y="500"/>
      <point x="400" y="439"/>
      <point x="400" y="359" type="curve" smooth="yes"/>
    </contour>
  </outline>
</glyph>
<glyph name="quoteleft" format="1">
  <advance width="625"/>
  <unicode hex="2018"/>
  <outline>
    <contour>
      <point x="368" y="1381" type="line"/>
      <point x="388" y="1440"/>
      <point x="425" y="1480"/>
      <point x="479" y="1501" type="curve"/>
      <point x="429" y="1591" type="line"/>
      <point x="296" y="1524"/>
      <point x="229" y="1409"/>
      <point x="229" y="1248" type="curve" smooth="yes"/>
      <point x="229" y="1241" type="line" smooth="yes"/>
      <point x="229" y="1161"/>
      <point x="285" y="1100"/>
      <point x="381" y="1100" type="curve" smooth="yes"/>
      <point x="472" y="1100"/>
      <point x="529" y="1161"/>
      <point x="529" y="1241" type="curve" smooth="yes"/>
      <point x="529" y="1321"/>
      <point x="472" y="1381"/>
      <point x="379" y="1381" type="curve" smooth="yes"/>
    </contour>
  </outline>
</glyph>
<glyph name="quoteright" format="1">
  <advance width="625"/>
  <unicode hex="2019"/>
  <outline>
    <contour>
      <point x="253" y="1310" type="line"/>
      <point x="233" y="1251"/>
      <point x="196" y="1211"/>
      <point x="142" y="1190" type="curve"/>
      <point x="192" y="1100" type="line"/>
      <point x="325" y="1167"/>
      <point x="392" y="1282"/>
      <point x="392" y="1443" type="curve" smooth="yes"/>
      <point x="392" y="1450" type="line" smooth="yes"/>
      <point x="392" y="1530"/>
      <point x="336" y="1591"/>
      <point x="240" y="1591" type="curve" smooth="yes"/>
      <point x="149" y="1591"/>
      <point x="92" y="1530"/>
      <point x="92" y="1450" type="curve" smooth="yes"/>
      <point x="92" y="1370"/>
      <point x="149" y="1310"/>
      <point x="242" y="1310" type="curve" smooth="yes"/>
    </contour>
  </outline>
</glyph>
<glyph name="quotesinglbase" format="1">
  <advance width="625"/>
  <unicode hex="201A"/>
  <outline>
    <contour>
      <point x="373" y="0" type="line"/>
      <point x="353" y="-59"/>
      <point x="316" y="-99"/>
      <point x="262" y="-120" type="curve"/>
      <point x="312" y="-210" type="line"/>
      <point x="445" y="-143"/>
      <point x="512" y="-28"/>
      <point x="512" y="133" type="curve" smooth="yes"/>
      <point x="512" y="140" type="line" smooth="yes"/>
      <point x="512" y="220"/>
      <point x="456" y="281"/>
      <point x="360" y="281" type="curve" smooth="yes"/>
      <point x="269" y="281"/>
      <point x="212" y="220"/>
      <point x="212" y="140" type="curve" smooth="yes"/>
      <point x="212" y="60"/>
      <point x="269" y="0"/>
      <point x="362" y="0" type="curve" smooth="yes"/>
    </contour>
  </outline>
</glyph>
<glyph name="quotedblleft" format="1">
  <advance width="985"/>
  <unicode hex="201C"/>
  <outline>
    <contour>
      <point x="368" y="1381" type="line"/>
      <point x="388" y="1440"/>
      <point x="425" y="1480"/>
      <point x="479" y="1501" type="curve"/>
      <point x="429" y="1591" type="line"/>
      <point x="296" y="1524"/>
      <point x="229" y="1409"/>
      <point x="229" y="1248" type="curve" smooth="yes"/>
      <point x="229" y="1241" type="line" smooth="yes"/>
      <point x="229" y="1161"/>
      <point x="285" y="1100"/>
      <point x="381" y="1100" type="curve" smooth="yes"/>
      <point x="472" y="1100"/>
      <point x="529" y="1161"/>
      <point x="529" y="1241" type="curve" smooth="yes"/>
      <point x="529" y="1321"/>
      <point x="472" y="1381"/>
      <point x="379" y="1381" type="curve" smooth="yes"/>
    </contour>
    <contour>
      <point x="739" y="1381" type="line"/>
      <point x="759" y="1440"/>
      <point x="796" y="1480"/>
      <point x="850" y="1501" type="curve"/>
      <point x="800" y="1591" type="line"/>
      <point x="667" y="1524"/>
      <point x="600" y="1409"/>
      <point x="600" y="1248" type="curve" smooth="yes"/>
      <point x="600" y="1241" type="line" smooth="yes"/>
      <point x="600" y="1161"/>
      <point x="656" y="1100"/>
      <point x="752" y="1100" type="curve" smooth="yes"/>
      <point x="843" y="1100"/>
      <point x="900" y="1161"/>
      <point x="900" y="1241" type="curve" smooth="yes"/>
      <point x="900" y="1321"/>
      <point x="843" y="1381"/>
      <point x="750" y="1381" type="curve" smooth="yes"/>
    </contour>
  </outline>
</glyph>
<glyph name="quotedblright" format="1">
  <advance width="985"/>
  <unicode hex="201D"/>
  <outline>
    <contour>
      <point x="621" y="1310" type="line"/>
      <point x="601" y="1251"/>
      <point x="564" y="1211"/>
      <point x="510" y="1190" type="curve"/>
      <point x="560" y="1100" type="line"/>
      <point x="693" y="1167"/>
      <point x="760" y="1282"/>
      <point x="760" y="1443" type="curve" smooth="yes"/>
      <point x="760" y="1450" type="line" smooth="yes"/>
      <point x="760" y="1530"/>
      <point x="704" y="1591"/>
      <point x="608" y="1591" type="curve" smooth="yes"/>
      <point x="517" y="1591"/>
      <point x="460" y="1530"/>
      <point x="460" y="1450" type="curve" smooth="yes"/>
      <point x="460" y="1370"/>
      <point x="517" y="1310"/>
      <point x="610" y="1310" type="curve" smooth="yes"/>
    </contour>
    <contour>
      <point x="250" y="1310" type="line"/>
      <point x="230" y="1251"/>
      <point x="193" y="1211"/>
      <point x="139" y="1190" type="curve"/>
      <point x="189" y="1100" type="line"/>
      <point x="322" y="1167"/>
      <point x="389" y="1282"/>
      <point x="389" y="1443" type="curve" smooth="yes"/>
      <point x="389" y="1450" type="line" smooth="yes"/>
      <point x="389" y="1530"/>
      <point x="333" y="1591"/>
      <point x="237" y="1591" type="curve" smooth="yes"/>
      <point x="146" y="1591"/>
      <point x="89" y="1530"/>
      <point x="89" y="1450" type="curve" smooth="yes"/>
      <point x="89" y="1370"/>
      <point x="146" y="1310"/>
      <point x="239" y="1310" type="curve" smooth="yes"/>
    </contour>
  </outline>
</glyph>
<glyph name="quotedblbase" format="1">
  <advance width="985"/>
  <unicode hex="201E"/>
  <outline>
    <contour>
      <point x="732" y="-21" type="line"/>
      <point x="712" y="-80"/>
      <point x="675" y="-120"/>
      <point x="621" y="-141" type="curve"/>
      <point x="671" y="-231" type="line"/>
      <point x="804" y="-164"/>
      <point x="871" y="-49"/>
      <point x="871" y="112" type="curve" smooth="yes"/>
      <point x="871" y="119" type="line" smooth="yes"/>
      <point x="871" y="199"/>
      <point x="815" y="260"/>
      <point x="719" y="260" type="curve" smooth="yes"/>
      <point x="628" y="260"/>
      <point x="571" y="199"/>
      <point x="571" y="119" type="curve" smooth="yes"/>
      <point x="571" y="39"/>
      <point x="628" y="-21"/>
      <point x="721" y="-21" type="curve" smooth="yes"/>
    </contour>
    <contour>
      <point x="361" y="-21" type="line"/>
      <point x="341" y="-80"/>
      <point x="304" y="-120"/>
      <point x="250" y="-141" type="curve"/>
      <point x="300" y="-231" type="line"/>
      <point x="433" y="-164"/>
      <point x="500" y="-49"/>
      <point x="500" y="112" type="curve" smooth="yes"/>
      <point x="500" y="119" type="line" smooth="yes"/>
      <point x="500" y="199"/>
      <point x="444" y="260"/>
      <point x="348" y="260" type="curve" smooth="yes"/>
      <point x="257" y="260"/>
      <point x="200" y="199"/>
      <point x="200" y="119" type="curve" smooth="yes"/>
      <point x="200" y="39"/>
      <point x="257" y="-21"/>
      <point x="350" y="-21" type="curve" smooth="yes"/>
    </contour>
  </outline>
</glyph>
<glyph name="ellipsis" format="1">
  <advance width="2048"/>
  <unicode hex="2026"/>
  <outline>
    <contour>
      <point x="200" y="60"/>
      <point x="257" y="0"/>
      <point x="350" y="0" type="curve" smooth="yes"/>
      <point x="443" y="0"/>
      <point x="500" y="60"/>
      <point x="500" y="140" type="curve" smooth="yes"/>
      <point x="500" y="220"/>
      <point x="444" y="281"/>
      <point x="348" y="281" type="curve" smooth="yes"/>
      <point x="257" y="281"/>
      <point x="200" y="220"/>
      <point x="200" y="140" type="curve" smooth="yes"/>
    </contour>
    <contour>
      <point x="899" y="60"/>
      <point x="956" y="0"/>
      <point x="1049" y="0" type="curve" smooth="yes"/>
      <point x="1142" y="0"/>
      <point x="1199" y="60"/>
      <point x="1199" y="140" type="curve" smooth="yes"/>
      <point x="1199" y="220"/>
      <point x="1143" y="281"/>
      <point x="1047" y="281" type="curve" smooth="yes"/>
      <point x="956" y="281"/>
      <point x="899" y="220"/>
      <point x="899" y="140" type="curve" smooth="yes"/>
    </contour>
    <contour>
      <point x="1601" y="60"/>
      <point x="1658" y="0"/>
      <point x="1751" y="0" type="curve" smooth="yes"/>
      <point x="1844" y="0"/>
      <point x="1901" y="60"/>
      <point x="1901" y="140" type="curve" smooth="yes"/>
      <point x="1901" y="220"/>
      <point x="1845" y="281"/>
      <point x="1749" y="281" type="curve" smooth="yes"/>
      <point x="1658" y="281"/>
      <point x="1601" y="220"/>
      <point x="1601" y="140" type="curve" smooth="yes"/>
    </contour>
  </outline>
</glyph>
<glyph name="guilsinglleft" format="1">
  <advance width="676"/>
  <unicode hex="2039"/>
  <outline>
    <contour>
      <point x="174" y="479" type="line"/>
      <point x="527" y="792" type="line"/>
      <point x="575" y="792" type="line"/>
      <point x="575" y="745" type="line"/>
      <point x="370" y="479" type="line"/>
      <point x="575" y="213" type="line"/>
      <point x="575" y="166" type="line"/>
      <point x="527" y="166" type="line"/>
    </contour>
  </outline>
</glyph>
<glyph name="guilsinglright" format="1">
  <advance width="676"/>
  <unicode hex="203A"/>
  <outline>
    <contour>
      <point x="149" y="166" type="line"/>
      <point x="101" y="166" type="line"/>
      <point x="101" y="213" type="line"/>
      <point x="306" y="479" type="line"/>
      <point x="101" y="745" type="line"/>
      <point x="101" y="792" type="line"/>
      <point x="149" y="792" type="line"/>
      <point x="502" y="479" type="line"/>
    </contour>
  </outline>
</glyph>
<glyph name="fraction" format="1">
  <advance width="342"/>
  <unicode hex="2044"/>
  <outline>
    <contour>
      <point x="-192" y="-20" type="line"/>
      <point x="448" y="1454" type="line"/>
      <point x="532" y="1454" type="line"/>
      <point x="-106" y="-20" type="line"/>
    </contour>
  </outline>
</glyph>
<glyph name="Euro" format="1">
  <advance width="1500"/>
  <unicode hex="20AC"/>
  <outline>
    <contour>
      <point x="121" y="940" type="line"/>
      <point x="184" y="1201"/>
      <point x="425" y="1500"/>
      <point x="849" y="1500" type="curve" smooth="yes"/>
      <point x="1063" y="1500"/>
      <point x="1247" y="1433"/>
      <point x="1400" y="1300" type="curve"/>
      <point x="1200" y="1081" type="line"/>
      <point x="996" y="1241"/>
      <point x="688" y="1242"/>
      <point x="524" y="1075" type="curve" smooth="yes"/>
      <point x="485" y="1035"/>
      <point x="455" y="990"/>
      <point x="434" y="940" type="curve"/>
      <point x="1000" y="940" type="line"/>
      <point x="1000" y="800" type="line"/>
      <point x="402" y="800" type="line"/>
      <point x="401" y="785"/>
      <point x="400" y="770"/>
      <point x="400" y="755" type="curve" smooth="yes"/>
      <point x="400" y="736"/>
      <point x="401" y="718"/>
      <point x="402" y="701" type="curve"/>
      <point x="1000" y="701" type="line"/>
      <point x="1000" y="561" type="line"/>
      <point x="434" y="561" type="line"/>
      <point x="455" y="508"/>
      <point x="485" y="462"/>
      <point x="525" y="423" type="curve" smooth="yes"/>
      <point x="608" y="341"/>
      <point x="716" y="300"/>
      <point x="851" y="300" type="curve" smooth="yes"/>
      <point x="986" y="300"/>
      <point x="1102" y="340"/>
      <point x="1200" y="419" type="curve"/>
      <point x="1400" y="200" type="line"/>
      <point x="1095" y="-67"/>
      <point x="603" y="-71"/>
      <point x="316" y="216" type="curve" smooth="yes"/>
      <point x="217" y="314"/>
      <point x="152" y="429"/>
      <point x="121" y="561" type="curve"/>
      <point x="-1" y="561" type="line"/>
      <point x="-1" y="701" type="line"/>
      <point x="101" y="701" type="line"/>
      <point x="100" y="718"/>
      <point x="100" y="736"/>
      <point x="100" y="753" type="curve" smooth="yes"/>
      <point x="100" y="769"/>
      <point x="100" y="785"/>
      <point x="101" y="800" type="curve"/>
      <point x="-1" y="800" type="line"/>
      <point x="-1" y="940" type="line"/>
    </contour>
  </outline>
</glyph>
<glyph name="minus" format="1">
  <advance width="1108"/>
  <unicode hex="2212"/>
  <outline>
    <contour>
      <point x="80" y="637" type="line"/>
      <point x="80" y="797" type="line"/>
      <point x="1028" y="797" type="line"/>
      <point x="1028" y="637" type="line"/>
    </contour>
  </outline>
</glyph>
<glyph name=".notdef" format="1">
  <advance width="1226"/>
  <outline>
    <contour>
      <point x="806" y="1500"/>
      <point x="1067" y="1325"/>
      <point x="1067" y="1060" type="curve"/>
      <point x="1054" y="873"/>
      <point x="975" y="723"/>
      <point x="782" y="670" type="curve" smooth="yes"/>
      <point x="685" y="643"/>
      <point x="634" y="553"/>
      <point x="628" y="400" type="curve"/>
      <point x="348" y="400" type="line"/>
      <point x="348" y="653"/>
      <point x="424" y="828"/>
      <point x="641" y="876" type="curve"/>
      <point x="732" y="892"/>
      <point x="780" y="959"/>
      <point x="783" y="1078" type="curve"/>
      <point x="760" y="1169"/>
      <point x="668" y="1217"/>
      <point x="507" y="1220" type="curve" smooth="yes"/>
      <point x="387" y="1220"/>
      <point x="294" y="1180"/>
      <point x="227" y="1100" type="curve"/>
      <point x="27" y="1300" type="line"/>
      <point x="160" y="1433"/>
      <point x="287" y="1500"/>
      <point x="566" y="1500" type="curve" smooth="yes"/>
    </contour>
    <contour>
      <point x="348" y="60"/>
      <point x="405" y="0"/>
      <point x="498" y="0" type="curve" smooth="yes"/>
      <point x="591" y="0"/>
      <point x="648" y="60"/>
      <point x="648" y="140" type="curve" smooth="yes"/>
      <point x="648" y="220"/>
      <point x="592" y="281"/>
      <point x="496" y="281" type="curve" smooth="yes"/>
      <point x="405" y="281"/>
      <point x="348" y="220"/>
      <point x="348" y="140" type="curve" smooth="yes"/>
    </contour>
  </outline>
</glyph>
